<svg viewBox="0 0 22 13" fill="none" xmlns="http://www.w3.org/2000/svg">
<path d="M0.263186 6.81127L5.63305 12.1105C5.97927 12.4532 6.5392 12.4487 6.88189 12.1016C7.22458 11.7545 7.22105 11.1955 6.87304 10.8528L3.03556 7.06565H21.0807C21.5691 7.06565 21.9639 6.67087 21.9639 6.18247C21.9639 5.69406 21.5691 5.29924 21.0807 5.29924H3.03556L6.87304 1.5121C7.22101 1.16941 7.22366 0.610352 6.88189 0.263261C6.7088 0.0883856 6.48092 7.62939e-05 6.25305 7.62939e-05C6.0287 7.62939e-05 5.8044 0.0848551 5.63305 0.254455L0.263186 5.55366C0.0953712 5.71969 0 5.94582 0 6.18251C0 6.41911 0.0944996 6.64433 0.263186 6.81127Z" fill="#21BCFF"/>
</svg>
