<svg width="42" height="42" viewBox="0 0 42 42" fill="none" xmlns="http://www.w3.org/2000/svg">
<path d="M26.1451 24.0407C25.0894 23.464 23.8786 23.1367 22.5915 23.1367H19.5326C18.2094 23.1367 16.9675 23.4829 15.8921 24.0891C13.6305 25.3622 12.103 27.7862 12.103 30.5663V32.8582H30.0211V30.5663C30.0211 27.7502 28.4543 25.3007 26.1451 24.0407Z" fill="#E2E7EE"/>
<path d="M34.5924 21.1003H32.0494C30.5646 21.1003 29.1808 21.5392 28.02 22.2955C28.5778 22.6614 29.102 23.0888 29.5852 23.5719C31.453 25.4398 32.4817 27.9237 32.4817 30.5659V31.6438H41.9998V28.5078C41.9998 24.4234 38.6767 21.1003 34.5924 21.1003Z" fill="#E2E7EE"/>
<path d="M9.95039 21.1003H7.40742C3.32309 21.1003 0 24.4234 0 28.5078V31.6438H9.64195V30.5659C9.64195 27.9237 10.6714 25.4398 12.5393 23.5719C13.0044 23.1068 13.5073 22.6934 14.0421 22.3366C12.8691 21.5556 11.4622 21.1003 9.95039 21.1003Z" fill="#E2E7EE"/>
<path d="M33.3175 9.95996C33.3044 9.95996 33.2909 9.96004 33.2778 9.96021C30.525 9.98293 28.3049 12.3622 28.3288 15.2639C28.3527 18.1518 30.59 20.4854 33.325 20.4854C33.3381 20.4854 33.3516 20.4853 33.3647 20.4851C34.7145 20.474 35.9741 19.9053 36.9116 18.8838C37.8272 17.886 38.3251 16.5712 38.3137 15.1814C38.2899 12.2935 36.0526 9.95996 33.3175 9.95996Z" fill="#E2E7EE"/>
<path d="M8.67536 9.95996C8.66232 9.95996 8.64879 9.96004 8.63566 9.96021C5.88286 9.98293 3.66276 12.3622 3.68672 15.2639C3.7105 18.1518 5.94791 20.4854 8.68291 20.4854C8.69604 20.4854 8.70949 20.4853 8.72261 20.4851C10.0724 20.474 11.332 19.9053 12.2695 18.8838C13.1852 17.886 13.6831 16.5712 13.6716 15.1814C13.6478 12.2935 11.4105 9.95996 8.67536 9.95996Z" fill="#E2E7EE"/>
<path d="M21.0624 9.14209C17.8887 9.14209 15.3071 11.8696 15.3071 15.2231C15.3071 17.6463 16.6557 19.743 18.6023 20.7192C19.3488 21.094 20.1831 21.3032 21.0624 21.3032C21.9418 21.3032 22.7761 21.094 23.5226 20.7192C25.4692 19.743 26.8178 17.6463 26.8178 15.2231C26.8178 11.8696 24.2362 9.14209 21.0624 9.14209Z" fill="#E2E7EE"/>
</svg>
