<svg width="14" height="28" viewBox="0 0 14 28" fill="none" xmlns="http://www.w3.org/2000/svg">
<rect x="0.5" y="0.5" width="13" height="13" rx="2.5" stroke="#3DC4FF"/>
<rect y="14" width="14" height="14" rx="3" fill="#3DC4FF"/>
<path d="M5.68784 24.2718L2.1278 20.7117C2.0454 20.6293 2 20.5194 2 20.4022C2 20.285 2.0454 20.1751 2.1278 20.0927L2.38992 19.8306C2.56071 19.66 2.8383 19.66 3.00884 19.8306L5.99834 22.8201L10.9912 17.1278C11.0736 17.0455 11.1834 17 11.3006 17C11.4178 17 11.5277 17.0455 11.6102 17.1278L11.8722 17.39C11.9546 17.4724 12 17.5822 12 17.6994C12 17.8166 11.9546 17.9266 11.8722 18.0089L6.30891 24.2718C6.22624 24.3543 6.11587 24.3996 5.99854 24.3994C5.88075 24.3996 5.77044 24.3543 5.68784 24.2718Z" fill="white"/>
</svg>
