<?xml version="1.0" encoding="utf-8"?>
<!-- Generator: Adobe Illustrator 22.1.0, SVG Export Plug-In . SVG Version: 6.00 Build 0)  -->
<svg version="1.1" id="Layer_1" xmlns="http://www.w3.org/2000/svg" xmlns:xlink="http://www.w3.org/1999/xlink" x="0px" y="0px"
	 viewBox="0 0 895 486.7" style="enable-background:new 0 0 895 486.7;" xml:space="preserve">
<style type="text/css">
	.st0{fill:url(#SVGID_1_);}
</style>
<title>ff_logo2</title>
<linearGradient id="SVGID_1_" gradientUnits="userSpaceOnUse" x1="2" y1="166.6756" x2="322.1" y2="166.6756" gradientTransform="matrix(1 0 0 -1 0 339.2756)">
	<stop  offset="0" style="stop-color:#76C9F0"/>
	<stop  offset="1" style="stop-color:#005C98"/>
</linearGradient>
<path class="st0" d="M157.7,9.2v32.4c39.6,0,77.2,17.8,102.2,48.6H159v32.4h120.5c4.6,11,7.7,22.6,9.2,34.5
	c-28.8-0.3-176.6-0.5-197.7-0.8c-12.6-0.2-32.2-0.5-72.6-0.9L2,155.2v16.4C2,262.2,75.8,336,166.4,336v-32.4
	c-39.6,0-77.2-17.9-102.2-48.6h100.9v-32.4H44.7c-4.6-11-7.7-22.6-9.2-34.5c28.8,0.4,44.5,0.6,55,0.7c22.3,0.3,174.9,0.6,215.2,1
	l16.4,0.2v-16.4C322.1,82.9,248.4,9.2,157.7,9.2z"/>
<path d="M258.1,248.4h-35.6v19H255v25h-32.4V337H193V223.4h65.1V248.4z"/>
<path d="M305.3,223.4V337h-29.5V223.4H305.3z"/>
<path d="M329.1,337V223.4h29.5l54.5,69.5v-69.5h29.4V337h-29.4l-54.5-69.4V337L329.1,337z"/>
<path d="M466.3,223.4H510c7.5-0.1,15,1.5,21.8,4.7c6.6,3,12.7,7.2,17.8,12.4c5.1,5.2,9.2,11.4,12,18.1c5.8,13.8,5.8,29.3,0.1,43.1
	c-2.8,6.8-6.8,12.9-11.9,18.1c-5.1,5.2-11.1,9.5-17.8,12.5c-6.9,3.1-14.4,4.7-21.9,4.7h-43.8V223.4z M495.8,312h6.8
	c4.7,0.1,9.4-0.7,13.7-2.4c3.8-1.5,7.3-3.7,10.2-6.6c2.8-2.9,4.9-6.3,6.3-10c1.5-4.1,2.2-8.4,2.2-12.7c0-4.3-0.7-8.6-2.3-12.6
	c-1.4-3.8-3.6-7.2-6.4-10.1c-2.9-2.9-6.4-5.1-10.2-6.6c-4.3-1.7-8.9-2.5-13.6-2.4h-6.8V312z"/>
<path d="M614.3,223.4V337h-29.5V223.4H614.3z"/>
<path d="M638.1,337V223.4h29.5l54.5,69.5v-69.5h29.4V337h-29.4l-54.5-69.4V337L638.1,337z"/>
<path d="M832.7,273.4h58.6c0,5.5-0.2,11-0.8,16.4c-0.4,4.7-1.4,9.3-3,13.7c-2,5.7-4.9,11-8.6,15.8c-3.6,4.5-7.9,8.4-12.7,11.5
	c-5,3.1-10.4,5.5-16,7c-6,1.6-12.2,2.4-18.4,2.4c-8.3,0.1-16.5-1.4-24.2-4.4c-7-2.7-13.4-6.9-18.8-12.2c-5.3-5.4-9.5-11.9-12.2-19
	c-3-7.8-4.5-16.1-4.4-24.5c-0.1-8.3,1.4-16.6,4.3-24.3c2.7-7.1,6.8-13.6,12.2-19c5.4-5.3,11.9-9.5,19-12.2c7.9-3,16.4-4.5,24.9-4.4
	c11.8,0,22.2,2.6,31.2,7.7s16,13.1,21.2,23.8l-28,11.6c-2.6-6.2-6-10.7-10.2-13.4c-4.2-2.7-9.2-4.1-14.2-4.1c-4.1,0-8.2,0.8-12,2.5
	c-3.6,1.6-6.8,4-9.3,7.1c-2.7,3.3-4.7,7-6,11.1c-1.5,4.7-2.3,9.6-2.2,14.5c0,4.5,0.6,9.1,1.9,13.4c1.1,3.9,3.1,7.6,5.7,10.7
	c2.5,3,5.7,5.4,9.3,7c4.1,1.7,8.5,2.6,13,2.5c2.8,0,5.7-0.3,8.4-1c2.6-0.6,5.1-1.7,7.3-3.2c2.2-1.5,4-3.4,5.3-5.6
	c1.5-2.6,2.5-5.5,2.9-8.4h-24.4V273.4z"/>
<path d="M257.8,389.2h-35.6v19h32.4v25h-32.4v44.6h-29.5V364.2h65.1V389.2z"/>
<path d="M270.2,421c-0.3-24.5,14.6-46.6,37.4-55.4c16.3-6.1,34.3-6.1,50.7,0c7.5,2.9,14.3,7.2,20,12.7c5.6,5.4,10,11.9,13,19.1
	c6.2,15.1,6.2,32.1,0,47.1c-3,7.2-7.4,13.6-13,19.1c-5.7,5.5-12.5,9.9-20,12.7c-16.3,6.1-34.3,6.1-50.7,0
	C284.8,467.5,269.9,445.4,270.2,421L270.2,421z M301,421c0,4.3,0.8,8.6,2.6,12.5c3.3,7.5,9.5,13.5,17.1,16.5
	c11.9,4.8,25.5,2.2,34.8-6.6c3-2.8,5.3-6.2,7-9.9c3.4-8,3.4-17,0-25c-1.7-3.7-4-7.1-7-9.9c-9.4-8.7-22.9-11.3-34.8-6.6
	c-7.6,3-13.8,9-17.1,16.5C301.9,412.4,301,416.7,301,421z"/>
<path d="M509.1,477.8h-36.8l-28.2-43.7v43.7h-29.5V364.2h46c5.6-0.1,11.3,0.8,16.6,2.8c8.7,3.2,15.5,10.1,18.6,18.8
	c1.6,4.3,2.4,8.9,2.3,13.6c0,8.7-2.1,15.7-6.2,21c-4.2,5.3-10.3,9-18.5,10.9L509.1,477.8z M444.2,414.9h5.6c5.8,0,10.3-1.2,13.4-3.6
	c3.1-2.4,4.7-5.9,4.7-10.4c0-4.5-1.6-8-4.7-10.4c-3.1-2.4-7.6-3.6-13.4-3.6h-5.6L444.2,414.9z"/>
<path d="M601.2,402.1c-6.8-8.4-15.3-12.5-25.3-12.5c-4.2,0-8.4,0.8-12.3,2.4c-7.4,3.1-13.2,9-16.1,16.4c-1.6,3.9-2.4,8.1-2.3,12.4
	c0,4.3,0.8,8.5,2.3,12.5c4.6,11.6,15.8,19.1,28.2,19c9.4,0,17.9-4,25.5-12v34.9l-3,1.1c-4.1,1.5-8.4,2.7-12.7,3.5
	c-3.8,0.7-7.7,1.1-11.6,1.1c-15.5,0-30.4-6.1-41.5-17c-5.6-5.5-10-12-13.2-19.1c-6.6-15.4-6.6-32.8-0.1-48.2
	c9.6-21.7,31.2-35.7,54.9-35.6c4.5,0,9,0.5,13.3,1.4c4.7,1.1,9.3,2.6,13.8,4.5L601.2,402.1z"/>
<path d="M684.5,389.2h-35.1v19h33.1v25h-33.1v19.6h35.1v25h-64.6V364.2h64.6V389.2z"/>
</svg>
