<svg xmlns="http://www.w3.org/2000/svg" viewBox="90 40 600 420"><style>.st3{fill:#fff}.st4{fill:#d6d6d6}.st5{fill:#c9c9c9}.st6{fill:#ebebeb}.st11,.st12,.st9{stroke-width:1.4255;stroke-miterlimit:10}.st9{fill:#fff;stroke:#ddd}.st11,.st12{fill:none;stroke:#d3d3d3}.st12{stroke-dasharray:5.8135,5.8135}.st13{fill:#86bfef}.st14,.st19{fill:none;stroke:#d3d3d3;stroke-miterlimit:10}.st19{fill:#ededed}.st20{stroke-width:1.4255}.st20,.st21{fill:#efefef;stroke:#d6d6d6;stroke-miterlimit:10}.st23{fill:#263238}.st26{fill:#e0e0e0}.st27{fill:#455a64}.st28{fill:#ffbe9d}.st29{fill:#394a51}.st30{opacity:.4}.st32{fill:#afafaf}.st33{opacity:.2}.st34{fill:#ffb29d}.st36{fill:#b78876}.st37{fill:#00adea}.st39{fill:#2b49f9}.st40{fill:#fafafa}.st42{fill:#aa6550}</style><g id="OBJECTS"><path d="M603.5 183.9c-.1-.8-.2-1.5-.4-2.3-.2-1-.3-2-.2-3.1.2-1 .7-2 1.7-2.4.3-.1.6-.2.9-.1.3.2.4.6.5 1 0 .6-.1 1.2-.3 1.9-.5 1.9-1.1 3.7-1.7 5.6m.2-.6c1-1.8 2.6-3.3 4.5-4.2.7-.3 1.5-.6 2.2-.3.2.1.4.2.5.4.1.2.1.3 0 .5-.2 1.1-1 1.9-1.9 2.5-1.4.9-3 1.5-4.6 1.7 0 0 5.5 2.6 4.8 8.7" fill="none" stroke="#0070e4" stroke-width=".905" stroke-linecap="round" stroke-miterlimit="10"/><path class="st3" d="M569 209.6l11.2.4s-1.5 5.9-7.7 5.2c-4.4-.4-3.5-5.6-3.5-5.6zm-351.8-5.4c-2.8 2.4-13.1-.9-13.1-.9s3.5 6.5 9.6 5.9c2.8-.3 3.7-3 3.5-5z"/><path class="st4" d="M480.1 367.6h-132s5.5 84.1-20.7 84.1h173.3c-26.1 0-20.6-84.1-20.6-84.1z"/><path class="st5" d="M346.6 418.1l133-27c-.2-13.3.4-23.6.4-23.6H348c.1.1 1.9 27.2-1.4 50.6z"/><path class="st6" d="M679.7 393H139.4c-4.5 0-8.1-3.6-8.1-8.1V53.5c0-4.5 3.6-8.1 8.1-8.1h540.4c4.5 0 8.1 3.6 8.1 8.1v331.3c0 4.5-3.7 8.2-8.2 8.2z"/><path class="st3" d="M668.4 380.6H150.6c-2.1 0-3.8-1.7-3.8-3.8V61.5c0-2.1 1.7-3.8 3.8-3.8h517.8c2.1 0 3.8 1.7 3.8 3.8v315.3c0 2.1-1.7 3.8-3.8 3.8z"/><path class="st6" d="M647.2 374.1H195c-5.4 0-9.8-4.4-9.8-9.8V125.1c0-5.4 4.4-9.8 9.8-9.8h452.2c5.4 0 9.8 4.4 9.8 9.8v239.2c.1 5.4-4.3 9.8-9.8 9.8z"/><path d="M638.7 361.2H171.9c-5.5 0-10-4.5-10-10V112.3c0-5.5 4.5-10 10-10h466.8c5.5 0 10 4.5 10 10v238.9c-.1 5.5-4.5 10-10 10z" fill="#fff" stroke="#ddd" stroke-width="1.448" stroke-miterlimit="10"/><path fill="#fff" stroke="#ddd" stroke-width="1.451" stroke-miterlimit="10" d="M146.2 88.5h517.9"/><path class="st6" d="M604 81.5H259.6c-4.7 0-8.5-3.8-8.5-8.5s3.8-8.5 8.5-8.5H604c4.7 0 8.5 3.8 8.5 8.5.1 4.7-3.8 8.5-8.5 8.5z"/><path class="st9" d="M196.1 73c0 2.5-2 4.6-4.6 4.6-2.5 0-4.6-2-4.6-4.6 0-2.5 2-4.6 4.6-4.6 2.6 0 4.6 2 4.6 4.6zm17.6 0c0 2.5-2 4.6-4.6 4.6-2.5 0-4.6-2-4.6-4.6 0-2.5 2-4.6 4.6-4.6 2.6 0 4.6 2 4.6 4.6zm17.6 0c0 2.5-2 4.6-4.6 4.6-2.5 0-4.6-2-4.6-4.6 0-2.5 2-4.6 4.6-4.6 2.5 0 4.6 2 4.6 4.6z"/><path class="st5" d="M524.3 457.9H303.9c0-4.8 5.5-8.6 12.3-8.6h195.9c6.7 0 12.2 3.8 12.2 8.6z"/><circle class="st4" cx="650.3" cy="67.3" r="1.8"/><circle class="st4" cx="650.3" cy="72.9" r="1.8"/><path class="st4" d="M652.1 78.6c0 1-.8 1.8-1.8 1.8s-1.8-.8-1.8-1.8.8-1.8 1.8-1.8c.9 0 1.8.8 1.8 1.8z"/><path fill="none" stroke="#afafaf" stroke-width="1.706" stroke-miterlimit="10" d="M494.7 449.9H333.1"/><path class="st11" d="M530.3 344.8v2.9h-2.8"/><path class="st12" d="M521.7 347.7H303.6"/><path class="st11" d="M300.7 347.7h-2.8v-2.9"/><path class="st12" d="M297.9 339V121"/><path class="st11" d="M297.9 118.1v-2.8h2.8"/><path class="st12" d="M306.6 115.3h218"/><path class="st11" d="M527.5 115.3h2.8v2.8"/><path class="st12" d="M530.3 123.9v218"/><path class="st6" d="M294.9 112.2h6v6h-6zm232.4 0h6v6h-6z"/><path class="st13" d="M294.9 344.7h6v6h-6z"/><path class="st14" d="M294.9 344.7h6v6h-6z"/><path class="st13" d="M527.3 344.7h6v6h-6z"/><path class="st14" d="M527.3 344.7h6v6h-6z"/><path class="st4" d="M196.1 112.2h37.3v29h-37.3zm43.2 0h37.3v29h-37.3z"/><path d="M196.1 146.2h37.3v29h-37.3zm43.2 0h37.3v29h-37.3z" fill="#e5e5e5"/><path class="st6" d="M196.1 180.1h37.3v29h-37.3zm43.2 0h37.3v29h-37.3zm-43.2 34h37.3v29h-37.3zm43.2 0h37.3v29h-37.3z"/><path d="M196.1 248h37.3v29h-37.3zm43.2 0h37.3v29h-37.3z" fill="#eef8ff"/><path d="M196.1 282h37.3v29h-37.3zm43.2 0h37.3v29h-37.3z" fill="#f3faff"/><path class="st6" d="M636.4 201.7h-92.3v-83.9c0-3.1 2.5-5.6 5.6-5.6h81.2c3.1 0 5.6 2.5 5.6 5.6v83.9z"/><path class="st9" d="M544.1 123.9h92.3m-92.3 19.4h92.3m-92.3 19.4h92.3m-92.3 19.4h92.3"/><path d="M627.1 120.9l4.7-4.7m-4.7 0l4.7 4.7" fill="none" stroke-width="1.069" stroke="#d3d3d3" stroke-miterlimit="10"/><path class="st19" d="M617.3 121.4l-2.9-2.9 2.9-2.8z"/><path class="st19" d="M620 121.4l-2.8-2.9 2.8-2.8z"/><path class="st20" d="M559.7 133.6s-2.3 3.4-5.2 3.4c-2.9 0-5.2-3.4-5.2-3.4s2.3-3.4 5.2-3.4c2.8 0 5.2 3.4 5.2 3.4z"/><circle class="st21" cx="554.5" cy="133.6" r="1.7"/><path class="st20" d="M559.7 153s-2.3 3.4-5.2 3.4c-2.9 0-5.2-3.4-5.2-3.4s2.3-3.4 5.2-3.4c2.8 0 5.2 3.4 5.2 3.4z"/><circle class="st21" cx="554.5" cy="153" r="1.7"/><path class="st20" d="M559.7 172.3s-2.3 3.4-5.2 3.4c-2.9 0-5.2-3.4-5.2-3.4s2.3-3.4 5.2-3.4c2.8 0 5.2 3.4 5.2 3.4z"/><path class="st21" d="M556.2 172.3c0 1-.8 1.7-1.7 1.7-1 0-1.7-.8-1.7-1.7 0-1 .8-1.7 1.7-1.7.9 0 1.7.8 1.7 1.7z"/><path class="st20" d="M559.7 191.7s-2.3 3.4-5.2 3.4c-2.9 0-5.2-3.4-5.2-3.4s2.3-3.4 5.2-3.4c2.8 0 5.2 3.4 5.2 3.4z"/><path class="st21" d="M556.2 191.7c0 1-.8 1.7-1.7 1.7-1 0-1.7-.8-1.7-1.7 0-1 .8-1.7 1.7-1.7.9 0 1.7.8 1.7 1.7z"/><path class="st9" d="M567.3 125.5v16.1m0 3.3V161m0 3.3v16.1"/><path fill="none" stroke="#cce4ff" stroke-width="1.425" stroke-miterlimit="10" d="M567.3 183.7v16.1"/><path class="st23" d="M601.3 182.1c2.5 2 5.7 3 8.7 1.7 3.1-1.3 5.6-3.8 8.6-5.2 3.7-1.7 8.6-1.5 12.2.4 3.1 1.6 5.2 4.5 8.1 6.5 4.5 3.1 9.7 3.9 14.1.4 4.2-3.4 10.5-4.7 14.9-.5l-5.6 19.1s-4.2-2.7-8.1 0c-2 1.4-4.1 2.6-6.5 3.4-7.7 2.6-14.8-2.4-19.4-8.3-1.5-1.9-2.9-4.1-5.2-5-3.1-1.1-6.4-.5-9.7-.9-4.9-.7-8-4.3-10.9-8"/></g><path class="st23" d="M729.3 458.3c0 .1-149.3.3-333.5.3s-333.6-.1-333.6-.3 149.3-.3 333.6-.3c184.1 0 333.5.2 333.5.3z" id="Floor"/><g id="Charts"><path class="st4" d="M411.6 176.3h-4.4c-2.8 0-6.8.1-11.6.2h-.1V217c0 3 0 5.4.1 7.1 0-1.7 0-4.1.1-7.1v-40.4l-.1.1c4.8-.1 8.8-.2 11.6-.3 1.4 0 2.5-.1 3.2-.1h1.2zm68.9 27.1h-1.6c-1.1 0-2.6 0-4.4-.1h-22.8l.2.2c0-3.5 0-6.5-.1-8.7v-26.4 26.4c0 2.2 0 5.2-.1 8.7v.2h23c1.8 0 3.3 0 4.4-.1h1.2c.1-.2.2-.2.2-.2zm-69.4-39.2h-12.9c-8 .1-19 .1-31.2.2-9.2.1-17.7.2-24.8.3h-.1v.1c-7.2 0 .1.2.1.2 7.1-.1 15.6-.1 24.8-.2 12.2-.1 23.2-.2 31.2-.3 4-.1 7.2-.1 9.4-.1 1.1 0 2 0 2.6-.1h.7c.2 0 .2 0 .2-.1z"/><path class="st6" d="M459 185.8h13.6v9.3H459zm0-11.8h19.9v9.3H459zm-139.7-14.9h13.6v9.3h-13.6zm0-19.7h19.9v17.2h-19.9zm190.5 57.7h-24.9c-3.5 0-6.3 2.8-6.3 6.3s2.8 6.3 6.3 6.3h24.9c3.5 0 6.3-2.8 6.3-6.3s-2.8-6.3-6.3-6.3z"/><circle class="st26" cx="451.7" cy="203.3" r="2.9"/><circle class="st26" cx="395.9" cy="177" r="2.9"/><path class="st6" d="M417.3 220h-28.1c-3.9 0-7.1 3.2-7.1 7.1 0 3.9 3.2 7.1 7.1 7.1h28.1c3.9 0 7.1-3.2 7.1-7.1 0-3.9-3.2-7.1-7.1-7.1z"/></g><path class="st23" d="M179.5 296.3v6.5h201.3v141.1h45.5V302.8h200.8v-6.5z" id="Desk"/><g id="Character_3"><g id="Layer_1"><path class="st6" d="M421.5 181.5h-2.2c0-.1-.1-.1-.2-.1-1.3-.1-2.6-.4-3.8-.9-3.7-1.5-6.4-4.2-7.9-7.9-.1-.2-.2-.2-.4-.2-1.3.2-2.5.3-3.8.1-2.9-.3-5.5-1.5-7.5-3.6-3.1-3.1-4.4-7-3.7-11.3.6-3.9 2.7-7 6-9.1.2-.1.2-.2.1-.4-1.4-3.4-1.5-6.9-.3-10.5 2.3-6.7 8.9-10.9 15.9-10.1 4.1.5 7.4 2.3 10 5.5.2.3.2.3.5 0 3.3-3.2 7.2-4.5 11.8-3.7 4.2.7 7.3 3 9.5 6.6.1.2.2.2.4.1 2.7-1.2 5.5-1.6 8.4-1.2 4 .5 7.5 2.2 10.2 5.2 3.8 4.2 5.3 9.1 4.2 14.7-1 5.4-4.1 9.3-8.9 11.8-3.3 1.7-6.8 2.1-10.4 1.5-.2 0-.3 0-.3.2-.6 1-1.3 1.9-2.2 2.7-2.3 2.2-5.1 3.3-8.2 3.3-1.9 0-3.6-.4-5.3-1.1-.2-.1-.2 0-.3.1-.1.3-.3.6-.4.9-2.3 4-5.7 6.4-10.2 7.2-.3.2-.7.1-1 .2z"/><path class="st3" d="M435.2 151.5h-.5c-.3 0-.3.1-.4.3-.4 2-.7 4-1.1 6-.1.4-.2.7-.3 1-.6 1.4-1.5 1.6-2.6 1.6-.3 0-.6-.1-.8-.1-.2-.1-.2-.1-.2-.3.1-.2.2-.5.3-.7.1-.1.1-.2.3-.1.1 0 .3.1.4.1.7.1 1-.1 1.3-.8.3-.7.4-1.5.5-2.2.3-1.5.5-3 .8-4.5 0-.2 0-.2-.2-.2h-.6c-.2 0-.3-.1-.3-.3.1-.2.1-.5.1-.7 0-.2.1-.3.3-.2h.7c.2 0 .2-.1.3-.2 0-.3.1-.6.2-.9.4-1.4 1.4-2 2.9-1.9.2 0 .5.1.7.1.2 0 .2.1.2.3-.1.2-.2.5-.3.8-.1.1-.1.2-.3.1-.2-.1-.5-.1-.7-.1-.5 0-.8.3-.9.7-.1.3-.2.6-.2.9 0 .2 0 .2.2.2h1.1c.2 0 .3.1.2.3-.1.2-.1.5-.1.7 0 .2-.1.2-.3.2-.4-.1-.6-.1-.7-.1zm-21.1 3.1v2.2c0 .2 0 .3-.2.3-1.2.3-2.3.5-3.6.3-.5-.1-.9-.2-1.3-.5-1-.7-1.1-2.7.2-3.5.6-.4 1.2-.5 1.8-.5.5 0 1 0 1.5.1.1 0 .2 0 .2-.1 0-.9-.4-1.3-1.4-1.4-.7 0-1.4.1-2 .4-.2.1-.3.1-.3-.1-.1-.2-.1-.4-.2-.6-.1-.2 0-.3.2-.4.5-.2 1-.4 1.5-.4.6-.1 1.3-.1 1.9 0 1.2.2 1.8 1 1.8 2.2 0 .5-.1 1.2-.1 2zm-1.4.4v-.9c0-.1 0-.2-.1-.2-.7-.1-1.3-.2-2 0-.6.2-.8.6-.8 1.1 0 .5.3.8.9 1 .6.2 1.3 0 1.9-.1.1 0 .1-.1.1-.2v-.7zm45.3-.9h-2.1c-.2 0-.2.1-.2.2.1 1.1.7 1.7 1.8 1.8.7 0 1.3 0 1.9-.3.2-.1.3 0 .3.2.1.2.1.4.2.6.1.2 0 .4-.2.4-.9.3-1.8.4-2.7.3-.5 0-.9-.2-1.3-.4-.8-.4-1.3-1-1.5-1.9-.2-.9-.2-1.9.1-2.8.5-1.5 1.7-2.2 3.3-2.2 1.6.1 2.5 1.2 2.7 2.7 0 .4.1.7 0 1.1 0 .2-.1.2-.3.2-.6.1-1.3.1-2 .1zm-.7-1.1h1.4c.1 0 .2 0 .2-.2 0-1-.9-1.7-1.9-1.5-.7.2-1 .7-1.2 1.4-.1.2 0 .3.2.3h1.3zm-35.2 1.1H420c-.2 0-.2 0-.2.2.2 1.2.8 1.8 2 1.8.6 0 1.2-.1 1.8-.3.2-.1.3 0 .3.1.1.2.1.4.2.7.1.2 0 .3-.2.4-.7.3-1.5.4-2.3.4-.5 0-1-.1-1.4-.2-.9-.4-1.5-1-1.8-2-.3-1-.3-2 .1-2.9.5-1.4 1.7-2.2 3.2-2.1 1.7.1 2.6 1.2 2.7 2.8v.9c0 .2-.1.3-.3.3-.6-.1-1.3-.1-2-.1zm-.6-1.1h1.4c.1 0 .2 0 .2-.2-.1-1.1-1-1.8-2.1-1.4-.6.2-1.1.9-1.1 1.5 0 .1.1.1.2.1h1.4zm18 4.4c-1.8 0-3-1.1-3.2-2.9-.1-.7-.1-1.5.1-2.2.4-1.4 1.6-2.3 3.2-2.2 1.8.1 2.9 1.3 3 3 .1.6 0 1.2-.1 1.8-.2 1.6-1.4 2.5-3 2.5zm1.7-3.5c0-.7-.1-1.2-.3-1.7-.3-.6-.8-.8-1.4-.8-.6 0-1.1.3-1.3.8-.4 1-.4 2.1 0 3.1.2.6.8.9 1.5.9s1.1-.3 1.4-.9c.1-.5.1-1 .1-1.4z"/><path class="st3" d="M428.2 150.2c.9 0 1.6.2 2.3.5.2.1.2.2.2.4-.1.2-.2.4-.2.6-.1.2-.1.2-.3.1-.6-.3-1.2-.4-1.8-.5-.3 0-.5 0-.7.1-.2.1-.4.3-.4.6s.1.5.4.6c.4.2.8.3 1.2.5.4.1.7.2 1.1.4.7.4 1.2.9 1.1 1.8-.1.9-.5 1.6-1.4 1.9-1.4.5-2.7.2-3.9-.5-.1-.1-.1-.2-.1-.3.1-.2.2-.5.3-.7.1-.2.1-.3.4-.1.5.3 1 .5 1.5.6.3.1.7.1 1 0 .2 0 .3-.1.4-.2.5-.3.5-1 0-1.3-.3-.2-.7-.3-1-.4-.4-.1-.8-.2-1.2-.4-.7-.3-1.2-.9-1.2-1.7 0-.9.4-1.5 1.2-1.9.3 0 .7-.1 1.1-.1zm-23.4 7.2c-.8 0-1.6-.2-2.3-.7-.2-.1-.3-.2-.2-.5.1-.2.2-.4.2-.6s.2-.2.3-.1c.5.3 1 .6 1.5.6.3.1.7.1 1 0 .2 0 .4-.1.5-.3.4-.4.3-.8-.1-1.1-.4-.2-.8-.3-1.2-.5-.3-.1-.7-.2-1-.3-.8-.4-1.2-.9-1.2-1.8s.5-1.5 1.3-1.9c1.2-.4 2.4-.2 3.5.4.1.1.2.1.1.3-.1.2-.2.5-.3.7-.1.2-.1.2-.3.1-.5-.3-1.1-.4-1.7-.5-.3 0-.6 0-.8.1-.5.3-.5.9-.1 1.2.4.2.8.3 1.2.5.4.1.8.3 1.2.5.7.4 1.1.9 1.1 1.8 0 .8-.4 1.4-1.2 1.8-.4.3-1 .3-1.5.3zm47 0c-.3 0-.7 0-1.1-.1-1.2-.3-2.1-1.3-2.3-2.6-.1-.7-.1-1.4.1-2.1.4-1.4 1.5-2.3 3-2.4.7 0 1.3 0 2 .2.2.1.2.1.2.3-.1.2-.2.4-.2.7-.1.2-.2.2-.4.2-.4-.1-.9-.2-1.3-.2-.9 0-1.5.4-1.7 1.3-.2.7-.2 1.4-.1 2.1.3 1 1 1.5 2.1 1.4.4 0 .7-.1 1-.2.2-.1.2 0 .3.2.1.2.2.5.2.7.1.2 0 .3-.2.3-.4.1-1 .2-1.6.2zm-36.2-5.1v-4.6c0-.2.1-.4.3-.3h.7c.4 0 .4 0 .4.4v9.1c0 .3-.1.4-.3.3h-.7c-.4 0-.4 0-.4-.4v-4.5zm29.8-1.4c.8-.7 1.6-.8 2.5-.6.2.1.3.1.2.3-.1.2-.2.5-.3.7-.1.2-.2.2-.3.2-.2 0-.4-.1-.6 0-.7.1-1.2.5-1.3 1.3-.1.3-.1.7-.1 1v3.1c0 .3-.1.3-.3.3h-.9c-.2 0-.2-.1-.2-.3v-6.4c0-.2.1-.3.3-.3h.8c.2 0 .3.1.3.3-.2.2-.1.3-.1.4z"/></g><path transform="rotate(-180 589.805 399.893)" class="st27" d="M586.1 356.1h7.3v87.6h-7.3z"/><path class="st23" d="M538.1 360h104.6c0-6.3-5.1-11.4-11.4-11.4h-81.9c-6.3.1-11.3 5.2-11.3 11.4zm44.6.3c0 .1 2.9.3 6.4.3 3.5 0 6.4-.1 6.4-.3 0-.1-2.9-.3-6.4-.3-3.5 0-6.4.1-6.4.3z"/><path class="st27" d="M557.8 451.7h1c0-17.2 14-31.1 31.1-31.1 17.2 0 31.1 14 31.1 31.1h1c0-17.7-14.4-32.2-32.2-32.2-17.6 0-32 14.4-32 32.2z"/><path class="st23" d="M616.8 453.2c0 2.7 2.2 4.8 4.8 4.8 2.7 0 4.8-2.2 4.8-4.8 0-2.7-2.2-4.8-4.8-4.8-2.7 0-4.8 2.2-4.8 4.8z"/><path class="st27" d="M553.3 452.6c0 2.7 2.2 4.8 4.8 4.8s4.8-2.2 4.8-4.8-2.2-4.8-4.8-4.8-4.8 2.1-4.8 4.8z"/><path class="st23" d="M645.7 269.3v64.5c0 8.5-6.9 15.3-15.3 15.3h-49.7l6.8-79.8c0-3.8 3.1-6.8 6.8-6.8h44.6c3.8 0 6.8 3 6.8 6.8z"/><path class="st27" d="M601.1 348.7s.6-.1 1.6-.1c1.1 0 2.6 0 4.3-.1h14.2c2.8 0 5.4 0 7.8.1 2.4 0 4.6.2 6.4.7 1.8.5 3.1 1.3 3.8 2 .4.3.7.6.8.8.2.2.3.3.2.3 0 0-.4-.4-1.2-1-.8-.6-2.1-1.4-3.8-1.8-1.7-.5-3.9-.6-6.3-.6s-5.1 0-7.8-.1c-5.5 0-10.6-.1-14.2-.2-1.7 0-3.2-.1-4.3-.1-.9.2-1.5.2-1.5.1z"/><path class="st28" d="M817.6 242.5c-1.2-9.7-2.7-17.9-2.7-17.9"/><path class="st29" d="M498.5 398.3l7.1-1.9 9.8 3.6-1.8 10.7-1.1-.4c-4.8-2-24.4-10.4-27.1-12.8-3-2.8 13.1.8 13.1.8z"/><g class="st30"><path class="st3" d="M490 396.8s-5.9-1-5.6.2c.2 1.1 20.1 10.5 29.2 13.9l.2-.4-23.2-10.8c-.1 0 .4-2.4-.6-2.9z"/></g><path class="st29" d="M387.1 453.2l-6.6-4.2-6.7.3-1.4 8.7.9.1c4 .2 20.4.9 23.1-.2 3-1.2-9.3-4.7-9.3-4.7z"/><path d="M393.5 455.4s4.4 1.6 3.9 2.5c-.5.9-17.5 1.1-24.9.4v-.4h19.7s.4-2.4 1.3-2.5z" fill="#999"/><path class="st29" d="M408.9 453.2l-6.6-4.2-6.7.3-1.4 8.7.9.1c4 .2 20.4.9 23.1-.2 3.1-1.2-9.3-4.7-9.3-4.7z"/><g class="st30"><path class="st3" d="M415.3 455.4s4.4 1.6 3.9 2.5c-.5.9-17.5 1.1-24.9.4v-.4H414s.4-2.4 1.3-2.5z"/></g><path class="st29" d="M292.6 450.4l-10-6.3-10.2.5-2.1 13.2 1.4.1c6.1.4 31 1.3 35.1-.4 4.6-1.9-14.2-7.1-14.2-7.1z"/><g class="st30"><path class="st3" d="M302.3 453.7s6.7 2.4 5.9 3.8c-.8 1.4-26.5 1.7-37.9.6v-.6h30c.1-.1.7-3.7 2-3.8z"/></g><path class="st29" d="M235.1 450.4l-10-6.3-10.2.5-2.1 13.2 1.4.1c6.1.4 31 1.3 35.1-.4 4.6-1.9-14.2-7.1-14.2-7.1z"/><g class="st30"><path class="st3" d="M244.8 453.7s6.7 2.4 5.9 3.8c-.8 1.4-26.5 1.7-37.9.6v-.6h30c.1-.1.7-3.7 2-3.8z"/></g><path class="st29" d="M538.6 454.3l5.8-4.5 10.4-.4 2.5 10.6h-1.2c-5.2 0-26.5-.3-30-1.5-3.7-1.5 12.5-4.2 12.5-4.2z"/><g class="st30"><path class="st3" d="M530.3 456s-5.8 1.3-5.1 2.3c.7 1 22.6 2.1 32.3 1.7v-.4l-25.5-1.1c-.2 0-.6-2.4-1.7-2.5z"/></g><path class="st23" d="M623.2 266c0 .2-4.9.3-10.9.3s-10.9-.1-10.9-.3c0-.2 4.9-.3 10.9-.3 6 .1 10.9.2 10.9.3z"/><path class="st32" d="M622.9 267.1l-4-20.1c-3-16.5-26-17.6-26-17.6l-18.1-.3s-13.4-1.8-21.7 7.5c-8.6 9.7-19.1 21.1-19.1 21.1l8.1 20.3 17.4-17.4s-1.9 5-1.9 10c0 5.4 6.6 8.7 6.6 8.7l1.7 16.3-5.7 26.4 59.2-2.4c-1.2-9.6-4.2-17.7-8.7-24.9l1.1-27.6h11.1z"/><path class="st33" d="M602.2 266.4c-.1 4-.7 12.1-10 16.2-9.5 4.2-23-4.1-28.2-3.4-.1.6.2 2 .3 2.8-1 7.8 32 17.8 39.4-.6.7-4.7 1.3-4.9-1.5-15z"/><path class="st27" d="M619.3 316.5s-77.5-13.9-86.3-9.7c-7.5 3.5-27.5 89.8-27.5 89.8l9.8 3.6s36.5-48.3 38.7-65.1c12.9 10.2 30.6 16.6 42.7 18.1 4.8.6 8.3-.2 10.9-1 23.9-7.5 11.7-35.7 11.7-35.7z"/><path class="st27" d="M584.8 321.5c-1.2.4-45.9 18.8-49.1 24.7-3.2 5.9 8.7 103.6 8.7 103.6l10.7.5s13.9-71 8.5-87.5c15.1-3 49.4-12.9 49.4-12.9l-28.2-28.4z"/><path class="st33" d="M563.5 306.1l33.1 5.9 22.7 4.5-4.8-14.4-49.5-3.4z"/><path class="st23" d="M581.9 174c-20.4-4.4-24.9 11.7-22.7 23.8 1 5.3 2.2 10.8 5.8 14.8.5.6 1.3 1.3 2.1 1.1.6-.1 1-.5 1.4-1 4.1-4.4 7.5-9.6 8.6-15.6 1.1-5.7 9.5-19.3 4.8-23.1"/><path class="st34" d="M572.8 234.5c-.1-5.6-.4-11.5-.4-11.5s-8.5-1.1-8.8-9.7c-.4-8.7-.5-23.8-.5-23.8l16.5-12.3 11.6 16 .3 41.1c0 5.2-4.2 9.5-9.4 9.5-5-.1-9.2-4.2-9.3-9.3z"/><path class="st23" d="M604.3 193.9c1.4-7.1-3.5-21.4-13-24-9.7-2.7-17.6-2-22.8 5-.5.7 2.8 5.9 3.2 6.7.2.3.5.5.8.7 1.7.9 3.7 1.3 5.6 1.2.1 1.7 1.5 3 3.1 3.6 1.6.6 3.3.5 5 .4-.6 1 0 2.3.8 3.2.8.9 1.8 1.5 2.5 2.5 1 1.7.6 3.8.4 5.8-.3 2.5 1 11.4 1.6 13.9.1.6 9.5-2.9 12.8-19z"/><path d="M572.4 222.9s5.7.2 11.2-3.7c0 0-2.6 6.3-11.1 5.8l-.1-2.1z" fill="#eb9078"/><path class="st34" d="M565.6 289.4c-.5-.6-24.2-14.2-24.9-13.8-1 .5-.7 1.7 1.1 2.6 1.8.9 4.5 3 4 4-.5.9-7-3-7-3s-1.8-1.3-2.4-.3c-1.1 1.9 8.8 6.2 9.8 6.6.7.3.1 1.3-.6 1-.7-.3-8.9-4.9-10.1-2.9-.9 1.5 8.2 3.6 9.3 5.5 1.2 1.9-6.7-2.3-7.5-.8-.3.5 3.1 1.5 8 3.3 4.6 1.6 13.9 1.8 16 2.2 11.6 3 14.7-2.4 4.3-4.4zm-41.2-38.9c-4.9 2.3-10 4.3-14.7 7.1-1.9-3.8-1.3-6.1-3.2-9.9-.2-.4-1.2-2.8-1.4-3.1-1.8-2.7-3.8-5.7-7.4-7-2-1-2.5-2.9-.1-4.5 3.7-2.6 3.7-2.6.3-5.8-.8-.7-2.5-1.9-2.5-1.9-2-1.5-2.7-1.8-4.2-3.3.5-1.4 4.4 1.1 6.2 2.2 3.5 1.8 6.3 4.9 7.9 6.6 4 4.5 8.4 8.8 12.8 12.9 2.3 2.2 4.3 4.4 6.3 6.7z"/><path class="st36" d="M262.9 249c4.9 2.3 10 4.3 14.7 7.1 1.9-3.8 1.3-6.1 3.2-9.9.2-.4 1.2-2.8 1.4-3.1 1.8-2.7 3.8-5.7 7.4-7 2-1 2.5-2.9.1-4.5-3.7-2.6-3.7-2.6-.3-5.8.8-.7 2.5-1.9 2.5-1.9 2-1.5 2.7-1.8 4.2-3.3-.5-1.4-4.4 1.1-6.2 2.2-3.5 1.8-6.3 4.9-7.9 6.6-4 4.5-8.4 8.8-12.8 12.9-2.3 2.1-4.3 4.4-6.3 6.7z"/><path class="st26" d="M486.5 245.9l17.2 50.4h78.1l-.6-2.6-31.5-1-14.6-46.8z"/><path class="st3" d="M521.1 269.6c.5 2.1-.4 4.1-2 4.5-1.6.4-3.3-.9-3.8-3s.4-4.1 2-4.5c1.5-.4 3.3.9 3.8 3z"/><path class="st29" d="M544.9 340.3c3-1.5 4.5-3.4 6.6-4.3 32.9 22.7 53.4 16.8 53.4 16.8s-21.1 5.5-29.4 7.2c0-2.3-15.3-14.2-30.6-19.7z"/><path class="st29" d="M535.5 346.8c-1.4 9.8.7 23.9.7 23.9s-7.5 10.1-9.3 13.2c2.7-12.7 1.4-35.3 7.3-41.9 3-2.8 7.5-6.9 13.9-7.7 2.3.9 3.3 1.7 3.3 1.7s1.4.9-2.3 2c-7.9 4.1-13.3 7-13.6 8.8z"/><path class="st32" d="M632 282.6c0-.4-.1-.8-.1-1.1v-.5c-.5-5.5-1.8-10.9-3.6-16.1-.9-2.6-1.8-5.3-3-7.8-1.8-3.9-3.2-8-5.5-11.6-.6-.9-5-7.1-7.1-8.7-3.7-3-7-2.3-9.2 1.9-.8 1.5-1.2 4.7-1.5 8.2 1.1 14.7 2.7 31.6-3.9 36.5-7 5.2-12 7.9-28.4 3.5 1.1-1.1-4.6-3.8-7.2-3.7-1.7-.1-6.8 10.1-5.6 10.6 1.9 2.7 4.6 4.8 7.5 6.1.6.3 2 1 2.3-.1.2-.7.7-.4 1.1-.2 4.2 2 8.2 3.4 12.6 5 .4.1 7.4 2.6 13.5 3.8 24.1 4.8 29.8-3.9 33.4-7.9 5.3-5.7 4.8-17 4.7-17.9z"/><path class="st3" d="M579.7 211.2c-1.5 2.6-4.7 4.7-7.4 4.7s-4.7-2.1-4.7-4.7h12.1z"/></g><g id="Character_2"><path class="st28" d="M395.6 449.4l-2.4-47.4 19.4-2-10.3 49.1zm-21.8 0l-2.4-47.4 19.4-2-10.3 49.1z"/><path class="st37" d="M342.7 309.9c18.9.1 37.9.2 56.7 2 7.5.7 15.7 1.9 20.9 7.4 4.9 5.1 6 12.6 6.9 19.6 2.8 21.4 5.5 42.8 8.3 64.1-26.1 2.7-52.6 1.8-78.5-2.5l.6-47.7.4-7.5-29.1-1.9 13.8-33.5z"/><path transform="rotate(-180 424.038 294.539)" class="st23" d="M385.5 292.7h77v3.7h-77z"/><path class="st23" d="M474.5 296.4l14.4-54.1h-60.1l-13.1 54.1z"/><path fill="#f5f5f5" d="M419.3 292.3H473l12.5-47.5h-54z"/><path class="st26" d="M432.9 254l-3.4 13.4h35.7L469 254z"/><path class="st27" d="M461.5 252.2c0 .1-6.2.3-14 .3-7.7 0-14-.1-14-.3 0-.1 6.2-.3 14-.3 7.7.1 14 .2 14 .3z"/><path class="st23" d="M445.2 256.6c0 .1-2.5.3-5.6.3-3.1 0-5.6-.1-5.6-.3s2.5-.3 5.6-.3c3.1 0 5.6.1 5.6.3zm9-.2c0 .1-1.6.3-3.7.3-2 0-3.7-.1-3.7-.3s1.6-.3 3.7-.3 3.7.1 3.7.3z"/><path class="st27" d="M464.4 259c0 .1-6.9.3-15.4.3s-15.4-.1-15.4-.3 6.9-.3 15.4-.3 15.4.2 15.4.3z"/><path class="st39" d="M443 261.2c0 .1-2.2.3-5 .3s-5-.1-5-.3 2.2-.3 5-.3c2.8.1 5 .2 5 .3z"/><path class="st27" d="M461.7 264.4c0 .1-6.4.3-14.3.3s-14.3-.1-14.3-.3 6.4-.3 14.3-.3c7.9.1 14.3.2 14.3.3zm-21 6.9c0 .1-2.5.3-5.5.3s-5.5-.1-5.5-.3 2.5-.3 5.5-.3c3 .1 5.5.2 5.5.3z"/><path class="st23" d="M450.1 271.4c0 .1-1.7.2-3.8.2-2.1 0-3.8-.1-3.8-.3 0-.1 1.7-.2 3.8-.2 2.1 0 3.8.1 3.8.3zm5.3-.3c0 .1-.7.3-1.6.3-.9 0-1.6-.1-1.6-.3s.7-.3 1.6-.3c.9 0 1.6.2 1.6.3z"/><path class="st39" d="M433.3 274.1c0 .1-.8.3-1.8.3s-1.8-.1-1.8-.3c0-.1.8-.3 1.8-.3 1.1 0 1.8.1 1.8.3z"/><path class="st23" d="M443.8 274.1c0 .1-1.9.3-4.2.3-2.3 0-4.2-.1-4.2-.3 0-.1 1.9-.3 4.2-.3 2.4 0 4.2.1 4.2.3z"/><path class="st27" d="M468.9 273.8c0 .1-5 .3-11.2.3-6.2 0-11.2-.1-11.2-.3s5-.3 11.2-.3c6.2 0 11.2.1 11.2.3z"/><path class="st23" d="M432.8 276.9c0 .1-.8.3-1.8.3s-1.8-.1-1.8-.3c0-.1.8-.3 1.8-.3 1 .1 1.8.2 1.8.3zm5.5-.1c0 .1-1 .3-2.2.3-1.2 0-2.2-.1-2.2-.3 0-.1 1-.3 2.2-.3 1.2.1 2.2.2 2.2.3z"/><path class="st27" d="M454.8 276.6c0 .1-3.2.3-7.1.3-3.9 0-7.1-.1-7.1-.3 0-.1 3.2-.3 7.1-.3 3.9.1 7.1.2 7.1.3zm-8.7 5c0 .1-3.8.3-8.5.3s-8.5-.1-8.5-.3 3.8-.3 8.5-.3c4.6 0 8.5.2 8.5.3z"/><path class="st39" d="M456 281.4c0 .1-1.7.3-3.9.3-2.1 0-3.9-.1-3.9-.3s1.7-.3 3.9-.3 3.9.1 3.9.3z"/><path class="st23" d="M470.8 281.4c0 .1-2.9.3-6.4.3-3.5 0-6.4-.1-6.4-.3s2.9-.3 6.4-.3c3.6 0 6.4.1 6.4.3zm-3.4-29.4c0 .1-.6.3-1.3.3-.7 0-1.3-.1-1.3-.3s.6-.3 1.3-.3c.7 0 1.3.2 1.3.3z"/><path class="st39" d="M440.3 250.2c0 .1-1.3.3-2.9.3-1.6 0-2.9-.1-2.9-.3 0-.1 1.3-.3 2.9-.3 1.6 0 2.9.2 2.9.3z"/><path class="st6" d="M484.6 248.2h-54l.9-3.4h54l-.9 3.4z"/><circle class="st40" cx="433.8" cy="246.5" r=".6"/><circle class="st40" cx="435.8" cy="246.5" r=".6"/><circle class="st40" cx="437.9" cy="246.5" r=".6"/><path class="st28" d="M369 276l5.9 10.7c6.9 9.8 10.1 9.8 16.7 9.8h42.9l-.3-6.8s-26-3.5-33.5-9.9c-4.9-4.2-13.5-23-13.5-23L369 276z"/><path class="st28" d="M437.8 290.1l3.4-1.1 6.2.3s5 2.2 5.7 2.5c2.5 1.3 4.8 2.9 4.8 2.9s1.5.6-3.9.9l-14.3.7-5.7.3.1-6.8 3.7.3zm-99.1-109.6l-2.3 47.2 20.2 1.9 1.1-11.4s7.1 1.8 9.3-4.8c1.4-4.2 2.6-37.2 2.6-37.2l-30.9 4.3z"/><path class="st23" d="M371.3 181.6c.6 4.4-5.6 7-5.6 7l-1.1 10.4c-.9-.1-2.9 0-2.9 0 .5-4.9-5.8-3.9-6.4-.6-.6 3.2 3 5.4 3 5.4-2.5 3.9-3.6 5.9-7.1 9.6-3.9 3.9-6 4.2-10 4.1l-4.4-.2s-1.6-3.8-2.7-12.7c-.6-4.3-3.9-9.9-2.9-16.9 2.7-19.8 21.7-17.7 21.7-17.7 9.7.3 17.1 1.4 18.4 11.6z"/><path class="st23" d="M356.8 170.6c4.3.1 8.7.4 12.5 2.5 3.8 2.1 6.8 7.5 6 11.8-.7.1-1.5.4-2.2.5-.3-.5-1.2-.3-1.2.6-1.3.4-2.2-.4-3.5 0-.6-3.2-1.7-6.3-3.3-9.1"/><path class="st37" d="M371.7 281.1l3.2 5.6 23.6-9.7c-5.3-11.2-7.2-18.6-16.5-33.8-5.4-8.7-12.6-15.6-19-17.4-6.7-1.9-14.3-2-20-2-11.7.1-26.9 5.1-29.3 16.6-1.8 8.8 2.2 23.1 2.2 42L313 322l62.1.1-5.6-32.2 2.2-8.8z"/><path class="st33" d="M311.5 277.6c7.3 1.5 14.8 0 22.3-.5 4.5-.3 9.5-.8 13.1 2 2.8 2.2 4 5.9 4.8 9.4 1.8 7.6 3 23.3 3.8 37.9.6 9.9 6.4 18.7 15.2 23.1 2.3 1.2 8.5 1.2 8.5 2l-59.8 2.5-7.9-76.4z"/><path class="st27" d="M346.8 356.6h7.3v87.6h-7.3zm-61.3-85.1V336c0 8.5 6.9 15.3 15.3 15.3h43v-79.8c0-3.8-3.1-6.8-6.8-6.8h-44.6c-3.9 0-6.9 3.1-6.9 6.8z"/><path class="st27" d="M401.6 356.6H297c0-6.3 5.1-11.4 11.4-11.4h81.9c6.2 0 11.3 5.1 11.3 11.4z"/><path class="st23" d="M343.8 343.7v.5c0 .3 0 .8-.2 1.4-.3 1.2-1 3-2.8 4.3-.9.7-2 1.3-3.3 1.5-1.3.2-2.7.1-4.1.2H324c-6.7 0-12.7 0-17.1-.1-2.1 0-3.9-.1-5.2-.1h-1.4c-.3 0-.5 0-.5-.1 0 0 .2 0 .5-.1.4 0 .8 0 1.4-.1 1.3 0 3.1-.1 5.2-.1 4.4-.1 10.4-.1 17.1-.1h9.4c1.4 0 2.8.1 4.1-.1 1.2-.2 2.3-.7 3.2-1.3 1.7-1.3 2.5-2.9 2.8-4.1.2-1 .2-1.7.3-1.7zm13.1 13.1c0 .1-2.9.3-6.4.3-3.5 0-6.4-.1-6.4-.3 0-.1 2.9-.3 6.4-.3 3.5 0 6.4.2 6.4.3z"/><path class="st27" d="M382.5 452.2h-1c0-17.2-14-31.1-31.1-31.1-17.2 0-31.1 14-31.1 31.1h-1c0-17.7 14.4-32.2 32.2-32.2 17.6 0 32 14.4 32 32.2z"/><path class="st23" d="M323.5 453.8c0 2.7-2.2 4.8-4.8 4.8-2.7 0-4.8-2.2-4.8-4.8 0-2.7 2.2-4.8 4.8-4.8 2.7-.1 4.8 2.1 4.8 4.8zM387 453.1c0 2.7-2.2 4.8-4.8 4.8-2.7 0-4.8-2.2-4.8-4.8 0-2.7 2.2-4.8 4.8-4.8 2.7 0 4.8 2.1 4.8 4.8zM337.5 217.4c3.7.1 7 .2 11.9-.4 3.8-.5 9.4-3 12.2-5.6 2-1.9 2.5-2.8 2.6-6.7l.3-5.6-5.7-15.5-14.5-1.2-13.4 6.1-1.2 20.4c-.2 4.5 3.3 8.3 7.8 8.5z"/><path class="st23" d="M363.2 207c0 2.3-2.1 4-4 5.3-1.9 1.3-4.1 2.6-4.7 4.9-1.1 4.4 4.5 7.7 5.1 12.1.4 3.3-2 6.1-3.5 9-2.5 4.8-1.7 14.6.6 19.5-6.1.5-44.9 0-50.2-.9 3.2-2.5 5.2-9.8 5-13.9-.2-4-1.4-7.1.9-11.4 1.3-2.5 5.2-5.3 6.5-7.7 1.1-2.3 1.4-4.9 1.1-7.4-.6-4 4.3-11.1 4.4-15.2 0-5.9 0-7.1 2-10.6s5-3.2 6.1-8"/><path class="st23" d="M333.8 197s-.1.2-.4.5c-.3.4-.6.9-1.1 1.5-.9 1.3-2.3 3.3-3.2 6-.4 1.4-.8 2.9-.7 4.6 0 .8.2 1.7.5 2.5s.7 1.7 1.1 2.5c.9 1.7 2.1 3.4 2.2 5.7.1 1.1-.3 2.2-.8 3.2s-1.2 1.9-2 2.7c-1.6 1.6-3.3 2.9-4.6 4.5-1.3 1.6-1.8 3.6-1.9 5.4-.1 1.9.1 3.7.4 5.4.2 1.7.5 3.3.5 4.7.1 2.9-.7 5.3-1.7 6.6-.5.7-.9 1.1-1.3 1.4-.2.1-.3.2-.4.3l-.1.1c0-.1.8-.5 1.7-1.9.9-1.3 1.6-3.6 1.5-6.5-.1-1.4-.3-3-.6-4.7-.3-1.7-.5-3.5-.4-5.5.1-1.9.6-4 2-5.7 1.3-1.7 3.1-3 4.6-4.5 1.5-1.5 2.7-3.4 2.7-5.5-.1-2-1.2-3.8-2.1-5.4-.5-.8-.9-1.7-1.2-2.6-.3-.9-.4-1.8-.4-2.7-.1-1.7.3-3.3.8-4.7 1-2.8 2.4-4.7 3.4-6 .5-.7.9-1.1 1.2-1.5.1-.2.3-.4.3-.4z"/><path class="st33" d="M401.1 356c-6.3 11.8-18.1 20.5-31.2 23.1-2.7.5-5.7.8-8.1-.6-3.3-1.9-4.3-6.2-4.2-9.9v-12.5h43.5z"/></g><g id="Character_1_1_"><path class="st27" d="M196.9 358.2h7.3v87.6h-7.3zm54.7 0H147c0-6.3 5.1-11.4 11.4-11.4h81.9c6.3.1 11.3 5.2 11.3 11.4z"/><path class="st23" d="M207 358.5c0 .1-2.9.3-6.4.3-3.5 0-6.4-.1-6.4-.3 0-.1 2.9-.3 6.4-.3 3.5 0 6.4.1 6.4.3z"/><path class="st27" d="M230.9 447.7c-2.9-14.2-15.5-25.1-30.5-25.1-17.2 0-31.1 14-31.1 31.1h-1c0-17.7 14.4-32.2 32.2-32.2 15.9 0 29.2 11.7 31.7 26.9-.6-.2-1-.4-1.3-.7z"/><path class="st23" d="M173.6 453.2c0 2.7-2.2 4.8-4.8 4.8s-4.8-2.2-4.8-4.8c0-2.7 2.2-4.8 4.8-4.8s4.8 2.2 4.8 4.8z"/><path class="st27" d="M144.6 271.5V336c0 8.5 6.9 15.3 15.3 15.3h49.7l-6.8-79.8c0-3.8-3.1-6.8-6.8-6.8h-44.6c-3.7 0-6.8 3-6.8 6.8z"/><path class="st23" d="M189.3 346.7s-.6.1-1.6.1c-1.1 0-2.6.1-4.3.1-3.6.1-8.7.1-14.2.2-2.8 0-5.4 0-7.8.1-2.4 0-4.6.1-6.3.6-1.7.4-3 1.2-3.8 1.8-.8.6-1.2 1-1.2 1s.1-.1.2-.3c.2-.2.4-.5.8-.8.8-.7 2.1-1.5 3.8-2 1.8-.5 4-.7 6.4-.7 2.4-.1 5-.1 7.8-.1h14.2c1.7 0 3.2 0 4.3.1 1.1-.2 1.7-.1 1.7-.1z"/><path class="st32" d="M226.1 264.8l5.2 52.2-64.2 1.4.3-42-4.6-36.3c3-17 26.8-18.1 26.8-18.1l18.7-.3s8.8-1.2 18.4 4.1c0 0 18.9 10.3 18.8 36.5"/><path class="st32" d="M167.8 231.3c-5.6 5.4-12.1 15.5-12.6 37.7l34.2.4-1.5-31.2c-.1-3-1.5-5.8-3.8-7.6-5-3.7-11.9-3.5-16.3.7z"/><path class="st33" d="M167.2 309.2c.2.2 0 0 .3.2 6.9 5.4 17 6.4 24.8 2.4 3-1.6 5.7-3.8 8.9-4.9 4.6-1.6 9.5-.6 14.3.1 4.8.8 10.4 1.3 14.7-.9l-.6-6.6-62.3 1.6"/><path class="st23" d="M192.8 316.4l24 32.2h16.4c5.5.8 9.4 12.9 9.9 15.7l29.4 80.2 10.2-.5s-6.4-79.2-10.8-105.3c-2.1-12.5-7.2-17.6-18-20.1-25.4-5.7-61.1-2.2-61.1-2.2z"/><path d="M209 347.5l20.5-4.6 13.6 21.3s5.4 14.4 6.7 18.1c-1.1-8.2 2.7-41.1 1.5-53-1.6-16-57.1-13-57.1-13-6.2 41.6 14.2 28.1 14.2 28.1" fill="#212121"/><path class="st23" d="M207 357.8l7.9 86.7 10.2-.5s24.2-88.3 21.8-114.7c-1.7-18.1-79.7-11.9-79.7-11.9-6.2 41.6 39.2 37.3 39.2 37.3m19.7-113.1c-.1 0-.1 1.1-.2 2.8 0 1.8-.1 4.2 0 6.9.1 2.5.1 4.8.1 6.7v-.4c0-1.9.1-4.2.1-6.7.1-2.6 0-4.9 0-6.6.2-1.6.1-2.7 0-2.7z"/><path class="st36" d="M155.2 269c-4.7 40.6 15.7 39.5 26.8 37.3 12-2.3 39.8-16.5 39.8-16.5l2.5-9.9s-33.8 10.3-42.1 3.7c-3.9-3.1 0-14.4 0-14.4s-22.3 0-27-.2zm46.6-34.3c5.9 0 10.7-4.8 10.6-10.8 0-3.7-.1-6.9-.1-6.9s8.6-.8 9.2-9.3c.6-8.5.4-28 .4-28-9.5-4.8-20.9-4.1-29.8 1.9l-1.3.9.4 41.6c0 5.9 4.8 10.6 10.6 10.6z"/><path class="st42" d="M212.4 216.9s-5.4.1-10.8-3.8c0 0 2.2 6.3 10.7 6l.1-2.2z"/><path class="st36" d="M193 191.9c-.2-.1-5.4-.7-4.9 5.4.5 6.1 6.5 3.6 6.5 3.4 0-.1-1.6-8.8-1.6-8.8z"/><path class="st42" d="M192.6 198.7s-.1.1-.3.2c-.2.1-.5.2-.8.1-.7-.2-1.3-1.2-1.4-2.3-.1-.6 0-1.1.2-1.6s.4-.8.7-.9c.3-.1.6.1.7.2.1.2.1.3.1.3s.1-.1.1-.4c0-.1-.1-.3-.3-.4-.2-.1-.4-.2-.6-.1-.5.1-.9.5-1 1-.2.5-.3 1.1-.2 1.7.1 1.2.9 2.3 1.8 2.5.4.1.8-.1 1-.2v-.1z"/><path class="st3" d="M206.4 205.2c1.5 2.6 4.7 4.7 7.4 4.7 2.6 0 4.7-2.1 4.7-4.7h-12.1z"/><path class="st23" d="M219 182.8c5-.8 5.6-5.3 5.7-7.4.6-10.7-10.2-14.9-17.6-6.9-3.8 4.1-34.8 2.6-16.3 23.6 1.1-.5 2.4.2 3 1.3.5 1.1.4 2.3.3 3.5.5.8 1.8.6 2.4-.2.6-.8.6-1.8.6-2.7 0-3.3 0-1.2.1-4.5 0-6.2 1.6-10 4.9-8 1.6 1 3.4 2 5.3 1.8 1.9-.2 3.7-1.4 4.7-3 1 .8 2 1.6 3.2 2.1 1.1.6 2.5.9 3.7.4"/><path class="st26" d="M198.1 296.4h77.6l12.8-49.6h-64.7l-10.3 46.4-15.4.3z"/></g></svg>
