<svg viewBox="0 0 66 66" fill="none" xmlns="http://www.w3.org/2000/svg"><path d="M0 0h47v60H0V0z" fill="#C2C9D4"/><path d="M52 66H6V17.467L19.499 5H52v61z" fill="#E2E7EE"/><path d="M62.148 59.844l-19.62-19.621 2.695-2.696 19.62 19.621a1.907 1.907 0 01-2.695 2.696zM5.715 17.467h14.544V5L5.715 17.467z" fill="#21BCFF"/><path d="M13.34 54.563h3.812v3.812H13.34v-3.813zM20.965 54.563h3.812v3.812h-3.812v-3.813zM28.59 54.563h3.812v3.812H28.59v-3.813z" fill="#fff"/><path d="M49.594 30.297c0 7.896-6.401 14.297-14.297 14.297C27.4 44.594 21 38.193 21 30.297 21 22.4 27.401 16 35.297 16c7.896 0 14.297 6.401 14.297 14.297z" fill="#21BCFF"/><path d="M45.781 30.297c0 5.79-4.694 10.484-10.484 10.484s-10.484-4.694-10.484-10.484 4.694-10.485 10.484-10.485S45.78 24.506 45.78 30.297z" fill="#E2E7EE"/></svg>