<svg viewBox="0 0 61 72" fill="none" xmlns="http://www.w3.org/2000/svg"><path d="M0 0h46v52H0V0z" fill="#C2C9D4"/><path d="M28 72L15.905 57.39H5V5h46v52.39H28V72z" fill="#E2E7EE"/><path d="M16 49.507l8.25-12.563L50 24.5l6.716 13.931L30.97 50.877 16 49.507z" fill="#21BCFF"/><path d="M24.25 36.944L16 49.507l14.97 1.37.48-.234-6.718-13.932-.483.233z" fill="#C2C9D4"/><path d="M13.004 15h19.334v3.867H13.004V15zM13.224 23.006h19.328v4.07H13.224v-4.07zM13.224 30.127h4.07v4.069h-4.07v-4.069zM13.224 38.265h4.07v4.07h-4.07v-4.07z" fill="#fff"/></svg>