<svg viewBox="0 0 51 60" fill="none" xmlns="http://www.w3.org/2000/svg"><path d="M0 0h46v55H0V0z" fill="#C2C9D4"/><path d="M5 5h46v55H5V5z" fill="#E2E7EE"/><path d="M40 56v4H16v-4c0-3.08 1.16-5.88 3.08-8 2.18-2.46 5.38-4 8.92-4s6.74 1.54 8.92 4c1.92 2.12 3.08 4.92 3.08 8z" fill="#21BCFF"/><path d="M36.92 48c0 2.2-4 4-8.92 4s-8.92-1.8-8.92-4c2.18-2.46 5.38-4 8.92-4s6.74 1.54 8.92 4z" fill="#19AEEE"/><path d="M36 40a8 8 0 01-8 8 8 8 0 01-8-8 8 8 0 018-8 8 8 0 018 8z" fill="#21BCFF"/><path d="M11 15h4v4h-4v-4zM11 23h4v4h-4v-4zM19 15h25v4H19v-4zM19 23h25v4H19v-4z" fill="#fff"/></svg>