<svg viewBox="0 0 66 66" fill="none" xmlns="http://www.w3.org/2000/svg"><path d="M5 2h46v51l-2.044 2-2.045 2H5V2z" fill="#C2C9D4"/><path d="M56 48.584V7H10v55h32.23L56 48.584z" fill="#E2E7EE"/><path d="M42.104 48.291v13.584l13.584-13.584H42.103zM22.688 8.25V0h20.625v8.25a4.125 4.125 0 01-4.126 4.125H26.813a4.125 4.125 0 01-4.125-4.125z" fill="#21BCFF"/><path d="M16.5 16.5h4.125v4.125H16.5V16.5zM24 17h25v4H24v-4zM16.5 24.75h4.125v4.125H16.5V24.75zM24 25h25v4H24v-4zM16.5 33h4.125v4.125H16.5V33zM24 33h25v4H24v-4zM16.5 41.25h4.125v4.125H16.5V41.25zM24 41h25v4H24v-4z" fill="#fff"/></svg>