<svg width="59" height="15" viewBox="0 0 59 15" fill="none" xmlns="http://www.w3.org/2000/svg">
<path d="M5.51533 7.92286L4.09377 7.7158C3.36696 7.61227 2.89667 7.45698 2.89667 7.06012C2.89667 6.71502 3.2387 6.58561 3.9762 6.58561H7.23616V5.4209H3.91207C2.14848 5.4209 1.18652 6.03345 1.18652 7.086C1.18652 8.19031 2.06297 8.65619 3.57004 8.87188L4.94884 9.07031C5.67565 9.17384 6.14594 9.34639 6.14594 9.76914C6.14594 10.1574 5.80391 10.2954 5.06641 10.2954H1.21859V11.4601H5.13054C6.89413 11.4601 7.85609 10.8303 7.85609 9.74325C7.85609 8.60443 7.05446 8.14717 5.51533 7.92286Z" fill="#271B55"/>
<path d="M12.4732 6.62891C11.5754 6.62891 10.902 6.85322 10.3462 7.36224L10.1431 6.71518H8.79639V13.0132H10.421V11.4085C10.8058 11.4948 11.212 11.5466 11.7036 11.5466C14.162 11.5466 15.0277 10.7615 15.0277 9.13949C15.0277 7.4744 14.0871 6.62891 12.4732 6.62891ZM11.7998 10.4077C11.3616 10.4077 10.8806 10.3818 10.421 10.2869V8.60459C10.7631 8.18185 11.2333 7.79361 11.9602 7.79361C13.0076 7.79361 13.371 8.25949 13.371 9.10498C13.371 10.0195 12.89 10.4077 11.7998 10.4077Z" fill="#271B55"/>
<path d="M15.8188 9.06185C15.8188 10.6924 16.7487 11.5466 18.3627 11.5466C19.2605 11.5466 19.9339 11.3395 20.4897 10.8564L20.7034 11.4603H22.0502V7.13793C20.8958 6.75832 19.7842 6.62891 18.6833 6.62891C16.8342 6.62891 15.8188 7.43126 15.8188 9.06185ZM20.4255 7.92302V9.63126C20.0728 10.0195 19.5491 10.3818 18.8223 10.3818C17.7748 10.3818 17.4755 9.9591 17.4755 9.06185C17.4755 8.15597 17.9352 7.7591 18.9505 7.76773C19.4743 7.77636 19.9873 7.82812 20.4255 7.92302Z" fill="#271B55"/>
<path d="M24.9682 7.41384L24.7437 6.71501H23.397V11.4601H25.0216V8.66482C25.3636 8.19893 25.8446 7.81933 26.7531 7.81933H27.7258V6.67188H26.9562C26.1011 6.67188 25.4919 6.88756 24.9682 7.41384Z" fill="#271B55"/>
<path d="M32.5783 8.95822C32.8134 8.83744 33.0165 8.66489 33.273 8.39744L34.8442 6.71509H32.8883L31.8301 7.96607C31.5308 8.31979 31.3278 8.44058 30.8682 8.44058H30.1627V4.90332H28.5381V11.4602H30.1627V9.53626H30.8468C31.2209 9.53626 31.4133 9.5794 31.6805 9.91587L32.9203 11.4602H34.9618L33.2624 9.5794C33.0165 9.29469 32.8134 9.08764 32.5783 8.95822Z" fill="#271B55"/>
<path d="M39.7501 9.30357C39.4188 9.6918 38.9164 9.97651 38.1362 9.97651C37.3452 9.97651 37.1315 9.68317 37.1315 9.09651V6.71533H35.5068V9.28631C35.5068 10.4942 36.2871 11.1498 37.6873 11.1498C38.5637 11.1498 39.2157 11.0118 39.7501 10.6063V11.0032C39.7501 11.6675 39.2478 12.004 38.1041 12.004H36.084V13.0996H38.1041C40.2952 13.0996 41.3748 12.3749 41.3748 10.9773V6.71533H39.7501V9.30357Z" fill="#271B55"/>
<path d="M46.4198 6.62881C45.554 6.62881 44.8806 6.83587 44.3248 7.31038V4.90332H42.7002V11.0288C43.566 11.3739 44.5279 11.5465 45.6074 11.5465C48.023 11.5465 48.9315 10.7182 48.9315 9.10489C48.9315 7.50018 48.0337 6.62881 46.4198 6.62881ZM45.7036 10.4076C45.2654 10.3904 44.7844 10.3386 44.3248 10.2437V8.6045C44.6669 8.18175 45.1372 7.79352 45.864 7.79352C46.9114 7.79352 47.2748 8.25077 47.2748 9.11352C47.2748 10.0021 46.8152 10.4076 45.7036 10.4076Z" fill="#271B55"/>
<path d="M51.572 6.72363H49.9688V11.4687H51.572V6.72363Z" fill="#271B55"/>
<path d="M56.1677 10.4336C55.4196 10.4336 54.992 10.2352 54.992 9.63988V7.84537H57.0228V6.7238H54.992V5.42969H53.8804L53.4636 6.7238H52.5337V7.84537H53.3888V9.59675C53.3888 10.9771 54.1369 11.5552 55.986 11.5552H57.1831V10.4336H56.1677Z" fill="#271B55"/>
<path d="M50.7704 6.20623C51.2131 6.20623 51.572 5.91653 51.572 5.55917C51.572 5.20181 51.2131 4.91211 50.7704 4.91211C50.3277 4.91211 49.9688 5.20181 49.9688 5.55917C49.9688 5.91653 50.3277 6.20623 50.7704 6.20623Z" fill="#271B55"/>
<path d="M48.1515 6.20576C48.2459 6.20576 48.3225 6.14396 48.3225 6.06773C48.3225 5.99149 48.2459 5.92969 48.1515 5.92969C48.057 5.92969 47.9805 5.99149 47.9805 6.06773C47.9805 6.14396 48.057 6.20576 48.1515 6.20576Z" fill="#12C3CC"/>
<path d="M48.7499 4.99807C48.7499 4.88592 48.6323 4.79102 48.4933 4.79102C48.3544 4.79102 48.2368 4.88592 48.2368 4.99807C48.2368 5.11023 48.3544 5.20513 48.4933 5.20513C48.6323 5.20513 48.7499 5.11023 48.7499 4.99807Z" fill="#12C3CC"/>
<path d="M49.434 4.48916C49.605 4.48916 49.7439 4.37701 49.7439 4.23897C49.7439 4.10093 49.605 3.98877 49.434 3.98877C49.263 3.98877 49.124 4.10093 49.124 4.23897C49.124 4.37701 49.263 4.48916 49.434 4.48916Z" fill="#12C3CC"/>
<path d="M50.4497 3.96276C50.4497 4.08354 50.5673 4.17844 50.7169 4.17844C50.8666 4.17844 50.9841 4.08354 50.9841 3.96276C50.9841 3.84197 50.8666 3.74707 50.7169 3.74707C50.5673 3.74707 50.4497 3.84197 50.4497 3.96276Z" fill="#12C3CC"/>
<path d="M52.2345 4.23863C52.2345 4.1351 52.1276 4.04883 51.9993 4.04883C51.871 4.04883 51.7642 4.1351 51.7642 4.23863C51.7642 4.34216 51.871 4.42844 51.9993 4.42844C52.1276 4.42844 52.2345 4.34216 52.2345 4.23863Z" fill="#12C3CC"/>
<path d="M52.8223 4.99822C52.8223 5.04999 52.8757 5.09312 52.9398 5.09312C53.004 5.09312 53.0574 5.04999 53.0574 4.99822C53.0574 4.94646 53.004 4.90332 52.9398 4.90332C52.8757 4.90332 52.8223 4.94646 52.8223 4.99822Z" fill="#12C3CC"/>
<path d="M46.869 6.20594C46.9871 6.20594 47.0828 6.12869 47.0828 6.03339C47.0828 5.93809 46.9871 5.86084 46.869 5.86084C46.751 5.86084 46.6553 5.93809 46.6553 6.03339C46.6553 6.12869 46.751 6.20594 46.869 6.20594Z" fill="#12C3CC"/>
<path d="M47.3925 4.97204C47.3925 4.84263 47.2642 4.73047 47.0932 4.73047C46.9329 4.73047 46.7939 4.834 46.7939 4.97204C46.7939 5.11008 46.9222 5.21361 47.0932 5.21361C47.2642 5.21361 47.3925 5.10145 47.3925 4.97204Z" fill="#12C3CC"/>
<path d="M47.7668 4.31632C47.9592 4.31632 48.1089 4.19553 48.1089 4.04024C48.1089 3.88494 47.9592 3.76416 47.7668 3.76416C47.5744 3.76416 47.4248 3.88494 47.4248 4.04024C47.4248 4.19553 47.5744 4.31632 47.7668 4.31632Z" fill="#12C3CC"/>
<path d="M48.7927 3.69524C49.0347 3.69524 49.2309 3.53688 49.2309 3.34152C49.2309 3.14616 49.0347 2.98779 48.7927 2.98779C48.5507 2.98779 48.3545 3.14616 48.3545 3.34152C48.3545 3.53688 48.5507 3.69524 48.7927 3.69524Z" fill="#12C3CC"/>
<path d="M50.0434 3.2898C50.2572 3.2898 50.4389 3.14313 50.4389 2.97058C50.4389 2.79803 50.2572 2.65137 50.0434 2.65137C49.8297 2.65137 49.6479 2.79803 49.6479 2.97058C49.6586 3.15176 49.8297 3.2898 50.0434 3.2898Z" fill="#12C3CC"/>
<path d="M51.39 2.71191C51.2083 2.71191 51.0693 2.82407 51.0693 2.97074C51.0693 3.1174 51.2083 3.22956 51.39 3.22956C51.5717 3.22956 51.7106 3.1174 51.7106 2.97074C51.7106 2.8327 51.561 2.71191 51.39 2.71191Z" fill="#12C3CC"/>
<path d="M52.6405 3.60017C52.8176 3.60017 52.9611 3.48429 52.9611 3.34134C52.9611 3.1984 52.8176 3.08252 52.6405 3.08252C52.4634 3.08252 52.3198 3.1984 52.3198 3.34134C52.3198 3.48429 52.4634 3.60017 52.6405 3.60017Z" fill="#12C3CC"/>
<path d="M53.6665 4.19552C53.7733 4.19552 53.8695 4.1265 53.8695 4.0316C53.8695 3.94532 53.784 3.86768 53.6665 3.86768C53.5596 3.86768 53.4634 3.9367 53.4634 4.0316C53.4634 4.1265 53.5596 4.19552 53.6665 4.19552Z" fill="#12C3CC"/>
<path d="M45.5862 6.20594C45.7219 6.20594 45.832 6.1171 45.832 6.00751C45.832 5.89792 45.7219 5.80908 45.5862 5.80908C45.4504 5.80908 45.3403 5.89792 45.3403 6.00751C45.3403 6.1171 45.4504 6.20594 45.5862 6.20594Z" fill="#12C3CC"/>
<path d="M45.7571 4.69629C45.5754 4.69629 45.4258 4.81707 45.4258 4.96374C45.4258 5.11041 45.5754 5.23119 45.7571 5.23119C45.9388 5.23119 46.0885 5.11041 46.0885 4.96374C46.0885 4.81707 45.9388 4.69629 45.7571 4.69629Z" fill="#12C3CC"/>
<path d="M46.27 4.27352C46.4825 4.27352 46.6548 4.13446 46.6548 3.96293C46.6548 3.7914 46.4825 3.65234 46.27 3.65234C46.0575 3.65234 45.8853 3.7914 45.8853 3.96293C45.8853 4.13446 46.0575 4.27352 46.27 4.27352Z" fill="#12C3CC"/>
<path d="M47.0933 3.48822C47.3531 3.48822 47.5636 3.31826 47.5636 3.10861C47.5636 2.89896 47.3531 2.729 47.0933 2.729C46.8336 2.729 46.623 2.89896 46.623 3.10861C46.623 3.31826 46.8336 3.48822 47.0933 3.48822Z" fill="#12C3CC"/>
<path d="M48.1511 2.79778C48.3932 2.79778 48.5894 2.63941 48.5894 2.44406C48.5894 2.2487 48.3932 2.09033 48.1511 2.09033C47.9091 2.09033 47.7129 2.2487 47.7129 2.44406C47.7129 2.63941 47.9091 2.79778 48.1511 2.79778Z" fill="#12C3CC"/>
<path d="M49.4987 2.4057C49.7572 2.35643 49.9173 2.14733 49.8563 1.93866C49.7952 1.72999 49.5362 1.60077 49.2777 1.65004C49.0191 1.69931 48.8591 1.90842 48.9201 2.11709C48.9811 2.32576 49.2402 2.45498 49.4987 2.4057Z" fill="#12C3CC"/>
<path d="M50.2676 1.89214C50.2676 2.09057 50.4707 2.25449 50.7165 2.25449C50.9623 2.25449 51.1654 2.09057 51.1654 1.89214C51.1654 1.69371 50.9623 1.52979 50.7165 1.52979C50.4707 1.52979 50.2676 1.69371 50.2676 1.89214Z" fill="#12C3CC"/>
<path d="M52.0419 2.36662C52.2664 2.36662 52.4481 2.21996 52.4481 2.03878C52.4481 1.8576 52.2664 1.71094 52.0419 1.71094C51.8174 1.71094 51.6357 1.8576 51.6357 2.03878C51.6357 2.21996 51.8174 2.36662 52.0419 2.36662Z" fill="#12C3CC"/>
<path d="M53.2818 2.67731C53.4411 2.67731 53.5704 2.57302 53.5704 2.44437C53.5704 2.31572 53.4411 2.21143 53.2818 2.21143C53.1224 2.21143 52.9932 2.31572 52.9932 2.44437C52.9932 2.57302 53.1224 2.67731 53.2818 2.67731Z" fill="#12C3CC"/>
<path d="M54.3401 3.30702C54.4758 3.30702 54.5859 3.21818 54.5859 3.10859C54.5859 2.999 54.4758 2.91016 54.3401 2.91016C54.2043 2.91016 54.0942 2.999 54.0942 3.10859C54.0942 3.21818 54.2043 3.30702 54.3401 3.30702Z" fill="#12C3CC"/>
</svg>
