<svg xmlns="http://www.w3.org/2000/svg" viewBox="0 0 670.9 508.5"><style>.st3{fill:#fff}.st4{fill:#cdcdcd}.st5{fill:#e8e8e8}.st6{fill:#cfcfcf}.st8{fill:#efefef}.st11{fill:#e5e5e5}.st14{fill:#263238}.st15{fill:#212121}.st16{fill:#455a64}.st17{fill:#b78876}.st18{fill:#00adea}.st19{fill:#394a51}.st20{opacity:.4}</style><g id="OBJECTS"><circle cx="320.4" cy="227.2" r="203.5" fill="#f2f2f2"/><path class="st3" d="M401.9 392.2H211V117.6h211.8v256.7c0 9.9-9.4 17.9-20.9 17.9z"/><path class="st4" d="M211 117.6h211.4v12.7H211zm158.4 151c2.9 0 2.9-3.2 0-3.2H263.3c-2.9 0-2.9 3.2 0 3.2h106.1z"/><path class="st5" d="M312.1 139.2c-17 0-32.2 7.5-42.5 19.4l42.5 36.9 42.5-36.9c-10.3-11.8-25.5-19.4-42.5-19.4z"/><path class="st6" d="M369.5 188.4l-54.6 7.8v55.2c30.5 0 55.2-24.7 55.2-55.2-.1-2.7-.3-5.3-.6-7.8z"/><path d="M269.6 158.8c-20.1 23.8-17 59.3 6.8 79.3 2.1 1.8 4.3 3.3 6.5 4.7l29.8-47.8-43.1-36.2z" fill="#fbfbfb"/><path class="st5" d="M312.6 251.5c-10.5 0-21.1-2.9-30.4-8.9l30.4-47.4v56.3z"/><path class="st6" d="M373.8 185.6c-1.6-11-6.3-20.9-13.2-28.9l-42.5 36.9 55.7-8zM235.9 330.1h20.7v49.8h-20.7z"/><path class="st8" d="M235.9 310.8h20.7v23.4h-20.7z"/><path class="st4" d="M372.1 332.3h20.7v49.8h-20.7z"/><path class="st8" d="M372.1 290.3h20.8v46.2h-20.8z"/><path class="st4" d="M326.7 328.4h20.7V381h-20.7z"/><path class="st8" d="M326.7 323.7h20.7v34.9h-20.7z"/><path class="st4" d="M281.3 310.1H302v70.7h-20.7z"/><path class="st8" d="M281.3 282.7H302v56.5h-20.7z"/><path class="st3" d="M219.1 127.6c-1.5 0-2.7-1.2-2.7-2.7 0-1.5 1.2-2.7 2.7-2.7s2.7 1.2 2.7 2.7c0 1.5-1.2 2.7-2.7 2.7zm0-5c-1.2 0-2.3 1-2.3 2.3 0 1.2 1 2.3 2.3 2.3 1.2 0 2.3-1 2.3-2.3-.1-1.2-1.1-2.3-2.3-2.3zm8.3 5c-1.5 0-2.7-1.2-2.7-2.7 0-1.5 1.2-2.7 2.7-2.7s2.7 1.2 2.7 2.7c.1 1.5-1.2 2.7-2.7 2.7zm0-5c-1.2 0-2.3 1-2.3 2.3 0 1.2 1 2.3 2.3 2.3s2.3-1 2.3-2.3c0-1.2-1-2.3-2.3-2.3zm8.4 5c-1.5 0-2.7-1.2-2.7-2.7 0-1.5 1.2-2.7 2.7-2.7 1.5 0 2.7 1.2 2.7 2.7 0 1.5-1.2 2.7-2.7 2.7zm0-5c-1.2 0-2.3 1-2.3 2.3 0 1.2 1 2.3 2.3 2.3 1.2 0 2.3-1 2.3-2.3 0-1.2-1-2.3-2.3-2.3z"/><path class="st6" d="M217.4 399.1h-135V190.6H230v196c0 6.9-5.6 12.5-12.6 12.5z"/><path class="st5" d="M206.7 393.1l-140.7.4-.7-218.4 159-.5.6 200.2c.1 10-8.1 18.2-18.2 18.3z"/><path transform="matrix(1 -.00308 .00308 1 -.717 .453)" class="st3" d="M82.4 192.3h128.7v81.4H82.4z"/><path class="st5" d="M163.9 220.4c.5 1.1 1.5 2 3.2 2.6 3.3 1.2 7.6.3 9.5-2.4 3.1-4.6 2.2-11.1 5.6-15.8 1.4-1.9 3.5-3.5 5.9-4.2 2.5-.7 5.3-.5 7.5.7 3.6 2 4.8 6 4.9 9.7.1 7.1-.9 14.4-2.1 21.4-.6 3.4-1.5 6.9-4 9.5-3.3 3.6-8.8 5.2-14 6-13.3 2.1-26.9.9-40.2-.3-10.8-1-21.5-2-32.3-2.9-3-.3-12 .2-13.8-1.9-1.8-2-.4-9 .6-11.2 2.3-4.8 8.6-7.5 14.5-7.2 13.4.6 8.1-13.3 12.3-20 2.3-3.5 7.3-6.1 11.6-4.6 4.1 1.4 5.9 5.5 7.9 8.9 1.1 1.8 2.6 3.6 4.8 4 3.8.6 7-3.3 10.9-3.1 2.3.1 4.3 1.6 5.3 3.4 1.3 2.6.8 5.3 1.9 7.4z"/><path class="st4" d="M202.8 269.1v-32.4c0-8.4.6-16.7.5-25-.1-3.9-1.7-5.9-5.8-4.8-4 1-7.6 3.4-10.1 6.7-1.7 2.2-3.1 5-5.8 5.9-4.7 1.6-8.6-3.7-12.9-6.3-4.6-2.8-11-2.3-15.1 1.2-5 4.2-6.1 11.5-10.3 16.4-4.6 5.5-13 7.3-19.5 4.4-2.7-1.2-5-3.2-7.6-4.5-10.4-5.2-24.9 2.4-26.6 13.9l.1 23.9c0-.1 113.3.8 113.1.6z"/><path transform="matrix(1 -.00308 .00308 1 -.897 .277)" fill="#d6d6d6" d="M84.7 286.2h9.7v9.7h-9.7z"/><path transform="matrix(1 -.00308 .00308 1 -.94 .278)" class="st4" d="M84.7 300.5h9.7v9.7h-9.7z"/><path transform="matrix(1 -.00308 .00308 1 -.895 .36)" class="st3" d="M102.3 289.1h28.2v2.9h-28.2z"/><path transform="matrix(1 -.00308 .00308 1 -.943 .36)" class="st3" d="M102 304.6h28.2v2.9H102z"/><path transform="matrix(1 -.00308 .00308 1 -1.01 .456)" class="st3" d="M86 326.5h122.8v3.2H86z"/><path transform="matrix(1 -.00308 .00308 1 -1.102 .351)" class="st3" d="M86.1 335.9h54.7v43.6H86.1z"/><path transform="matrix(1 -.00308 .00308 1 -1.064 .553)" class="st3" d="M149.2 336.1h59.7v19h-59.7z"/><path transform="matrix(1 -.00308 .00308 1 -1.138 .552)" class="st3" d="M148.6 360h59.7v19h-59.7z"/><path class="st4" d="M76.4 162.3h79.4c.4 0 .7-.3.7-.8V85.3c0-.4-.3-.8-.7-.8H55.3c-.4 0-.7.3-.7.8v53.2c0 13.2 9.8 23.8 21.8 23.8z"/><path class="st4" d="M137 161l-.4 24.7c0 .8-1 1.1-1.5.5L115.7 159c-.4-.6 0-1.3.7-1.3l20.1 1.3c.5 0 .9.5.7 1l-.2.8v.2z"/><path d="M67.8 97.3h62.6v2.6H67.8zm0 19.9h74.6v2.6H67.8zm0 19.8h74.6v2.6H67.8z" fill="#fffff5"/><path class="st11" d="M221.2 109.5h-74.5V56.7h69.8l14.9 15.8v26.1c0 6-4.6 10.9-10.2 10.9z"/><path class="st4" d="M231.3 72.6l-15 .4V56.7z"/><path d="M167.1 70.4h47.5v2.3h-47.5zm-7.5 10.9h55.1v2.3h-55.1zm0 11h55.1v2.3h-55.1z" fill="#f4f4f4"/><path class="st6" d="M566.5 369.4H409.8V247.8H578v110.1c0 6.3-5.1 11.5-11.5 11.5z"/><path class="st5" d="M572.5 359.8H414.2v-122h169.4v111c-.1 6.1-5 11-11.1 11z"/><path class="st6" d="M414.4 238h169.1v9.7H414.4z"/><g id="object"><path class="st4" d="M403.1 188.4c-.1.2 0 .5.3.6.6.3 1.2.5 1.8.7.2.1.5 0 .6-.3.1-.2 0-.5-.3-.6-.6-.2-1.1-.4-1.7-.7-.3-.1-.5 0-.7.3zm5.9 1.2c1.2.2 2.4.2 3.6.2.3 0 .5.2.5.4 0 .3-.2.5-.4.5-1.3 0-2.6 0-3.8-.2-.3 0-.4-.3-.4-.5v-.1c0-.2.2-.3.5-.3zm7.2-.2c1.2-.2 2.3-.5 3.5-.9.2-.1.5.1.6.3.1.2-.1.5-.3.6-1.2.4-2.4.7-3.6.9-.3 0-.5-.1-.5-.4v-.2c0-.1.1-.2.3-.3zm6.9-2.2c1.1-.5 2.2-1.1 3.3-1.7.2-.1.5-.1.6.2.1.2.1.5-.2.6-1.1.6-2.2 1.2-3.3 1.7-.2.1-.5 0-.6-.2 0-.1-.1-.2 0-.3 0-.1.1-.2.2-.3zm6.4-3.6c1-.7 2-1.4 2.9-2.2.2-.2.5-.1.7.1.2.2.1.5-.1.7-1 .8-2 1.6-3 2.3-.2.1-.5.1-.6-.1-.1-.1-.1-.3-.1-.4 0-.3.1-.4.2-.4zm5.6-4.7c.9-.8 1.7-1.7 2.5-2.7.2-.2.5-.2.7 0 .2.2.2.5 0 .7-.8.9-1.7 1.8-2.6 2.7-.2.2-.5.2-.7 0-.1-.1-.2-.3-.1-.5.1-.1.1-.2.2-.2zm4.9-5.5c.8-.9 1.5-1.9 2.2-2.9.2-.2.4-.3.6-.1.2.1.3.4.1.6-.7 1-1.5 2-2.3 3-.2.2-.5.2-.7.1-.2-.1-.2-.3-.2-.5.2-.1.3-.1.3-.2zm4.3-6c.7-1 1.3-2.1 1.9-3.1.1-.2.4-.3.6-.2.2.1.3.4.2.6-.6 1.1-1.3 2.2-1.9 3.2-.1.2-.4.3-.6.1-.2-.1-.3-.3-.2-.5v-.1zm19.4-59.4c.1-.2.4-.4.6-.3.2.1.4.4.3.6-.4 1-.7 2-1.1 3.1l-.1.4c-.1.2-.3.4-.6.3-.2-.1-.4-.3-.3-.6l.1-.4c.4-1 .7-2.1 1.1-3.1zm-1.6 6.8c.3.1.4.3.3.6-.2 1.1-.5 2.3-.8 3.6 0 .3-.3.4-.5.4-.3 0-.4-.3-.4-.5.3-1.4.5-2.6.8-3.6.2-.4.4-.5.6-.5zM448 161.1c.6-1.1 1.1-2.2 1.6-3.3.1-.2.4-.3.6-.2.2.1.3.4.2.6-.5 1.1-1.1 2.3-1.6 3.3-.1.2-.4.3-.6.2-.2-.1-.3-.3-.2-.6zm17.3-56.5c.6-1.1 1.3-2.2 2-3.2.2-.2.4-.3.6-.1.2.2.3.4.1.6-.7 1-1.3 2-1.9 3.1-.1.2-.4.3-.6.2-.2-.1-.3-.3-.2-.6-.1 0-.1 0 0 0zm-4.6 17.5c.3 0 .4.3.4.5l-.2 1.1c-.2.9-.3 1.7-.5 2.6-.1.3-.3.4-.5.4-.3 0-.4-.3-.4-.5.2-.8.3-1.7.5-2.5l.2-1.1c0-.4.2-.6.5-.5zm-9.6 32.3c.5-1.1.9-2.3 1.4-3.4.1-.2.4-.4.6-.3.2.1.4.4.3.6-.4 1.2-.9 2.3-1.4 3.5-.1.2-.4.3-.6.2-.2-.1-.4-.3-.3-.6zm8.1-25c.3.1.4.3.4.6-.3 1.2-.5 2.4-.8 3.6-.1.2-.3.4-.6.3-.2-.1-.4-.3-.3-.6.3-1.2.6-2.4.8-3.6 0-.3.3-.4.5-.3zm-1.7 7.2c.2.1.4.3.3.6-.3 1.2-.6 2.4-1 3.6-.1.3-.3.4-.6.3-.2-.1-.4-.3-.3-.6.3-1.2.7-2.4 1-3.6.1-.3.4-.4.6-.3zm-3.7 10.9c.4-1.1.8-2.3 1.2-3.5.1-.2.3-.4.6-.3.2.1.4.3.3.6-.4 1.2-.8 2.4-1.2 3.5-.1.2-.3.4-.6.3-.3-.1-.4-.3-.3-.6zm15.9-49c.9-.9 1.8-1.7 2.9-2.4.2-.2.5-.1.6.1.2.2.1.5-.1.6-1 .7-1.9 1.5-2.8 2.4-.2.2-.5.2-.7 0-.1-.1-.2-.3-.1-.5l.2-.2zm6-4.4c1.1-.6 2.2-1.1 3.4-1.6.2-.1.5 0 .6.3.1.2 0 .5-.3.6-1.2.5-2.3 1-3.3 1.5-.2.1-.5 0-.6-.2-.1-.1-.1-.2 0-.4.1-.1.1-.2.2-.2zm7-2.8l3.6-.9c.3 0 .5.1.5.4 0 .3-.1.5-.4.5-1.2.2-2.4.5-3.6.9-.2.1-.5-.1-.6-.3v-.3c.2-.1.3-.3.5-.3zm7-1.2v.2c0 .3.3.4.5.4.6-.1 1.2-.1 1.8-.2.3 0 .4-.2.4-.5s-.2-.4-.5-.4c-.6.1-1.3.1-1.9.2-.1 0-.3.2-.3.3z"/><path class="st5" d="M529.1 77.3l-28.8 33.5-2-21s31.6-13.4 31.4-12.9l-.2-.8c.5.2-31.8 11.8-31.8 11.8L484.9 71l43.8 5 .4 1.3z"/></g><circle class="st11" cx="219" cy="124.8" r="3.1"/><circle class="st11" cx="227.4" cy="124.8" r="3.1"/><circle class="st11" cx="235.7" cy="124.8" r="3.1"/></g><path class="st14" d="M669.2 477c0 .1-149.3.3-333.5.3S2.1 477.2 2.1 477s149.3-.3 333.6-.3c184.2.1 333.5.2 333.5.3z" id="Floor"/><g id="Character"><path class="st14" d="M464.8 339.6h64.4v6.2h-64.4zm-6.9 42.2h64.4v6.2h-64.4zm18.7-87.6H541v6.2h-64.4zm7.9-42.7h64.4v6.2h-64.4zm-40.4 172.7h64.4v6.2h-64.4z"/><path class="st14" d="M486 213.9L428.4 477h10.8L497 214.3z"/><path class="st15" d="M553.4 213.9L495.8 477h10.8l57.7-262.7z"/><path class="st16" d="M491.8 210.5L552 477h10l-59.7-266.5zm65.1 0L617.1 477h10l-59.7-266.5z"/><path class="st16" d="M482.7 209.5v5.6h92.1v-6.4zm36 86h64.4v6.2h-64.4zm12.5 43.9h64.4v6.2h-64.4zm7.3 42.4h64.4v6.2h-64.4zm10.8 45.5h64.4v6.2h-64.4zm-42.1-175.8h64.4v6.2h-64.4z"/><path class="st17" d="M558.2 105.6l.1 41.6-16.2.8-.7-10s-7.8 1.2-9.5-4.7c-1-3.8-.8-32.8-.8-32.8l27.1 5.1z"/><path class="st14" d="M527.2 104.6c1.2 2.5 6.9 7 6.9 7l2.6 6.9c2.2-1.8 5.3-1.7 5.8 2.3.4 2.9-3.1 3.4-3.1 3.4 2.1 3.5 3.5 6.4 6.5 9.7 3.3 3.6 5.1 4 8.6 4h3.9s8-6.7 6.4-24.2c-1.6-17.5-17.3-12.4-21.1-16.8-6.1-7-20.5-.6-16.5 7.7z"/><path class="st15" d="M556.1 241.9c1.6 1.7 1.1 62.3 1.1 62.3l56.9 34.3 6.4-5.7s-27.8-26.8-32.2-41.2c-2.9-9.5 2.5-35.9-2.3-66.7-.9-5.9-32-1.6-32-1.6l2.1 18.6z"/><path class="st14" d="M530.1 232.1c3.5 38.8 33.7 139.5 33.7 139.5h8.5s7.4-87.1 6.4-127.6c0-1.7 8.6-5.9 8.5-7.4-.1-1-1.3-11.4-1.4-12.2-.2-1.9-20.1-.3-20.1-.3s-30.8.2-35.6 8z"/><path class="st18" d="M531.8 181.6s-10.9-3.9-6-16.7c4.8-12.5 1.3-11.1 12.3-16.8 4.7-2.4 10.9-2.9 15.3-2.9 9 .1 16.1 10 19.4 18.4 6.9 17.4 13 61.4 13 61.4s-42.4 7.9-55.8 7.1c-3.3-29.4 1.8-50.5 1.8-50.5z"/></g><g id="Character_3"><path class="st17" d="M522.3 145.7c3.5 2.4 22.7 8.6 22.1 9.7-.7 1.2-13.3 9.1-13.9 10.6-1 2.8-11.8-2.6-14.6-5.3-7.7-7.6-19.6-31.5-23.9-36.3-1.4-1.5-4.8-3-7.3-3.9-1.4-.7-1.7-2-.1-3.1 2.5-1.8 2.5-1.8.2-3.9-.5-.5-1.7-1.3-1.7-1.3-1.4-1-1.9-1.2-2.9-2.3.3-1 3 .8 4.2 1.5 2.4 1.2 3 1.8 4.1 3 1.9 1.7 2.5 3.9 4.9 6.5 1.4 1.6 22.8 20.4 28.9 24.8z"/><path class="st19" d="M555.7 376.3l8.4-5.3 8.5.4 1.7 11.1-1.1.1c-5.1.3-26 1.1-29.4-.3-3.9-1.6 11.9-6 11.9-6z"/><g class="st20"><path class="st3" d="M547.5 379.1s-5.6 2-4.9 3.2c.7 1.2 22.2 1.4 31.7.5v-.5h-25.1c-.1-.1-.6-3.1-1.7-3.2z"/></g><path class="st19" d="M611.8 348.1l2.3-9.6 6.4-5.7 9 6.7-.8.9c-3.4 3.8-17.8 18.9-21.2 20.3-3.9 1.6 4.3-12.6 4.3-12.6z"/><g class="st20"><path class="st3" d="M607.9 355.8s-2.6 5.4-1.3 5.7c1.3.4 16.9-14.5 23-21.8l-.4-.4-18 17.5c0 .1-2.5-1.7-3.3-1z"/></g><path class="st6" d="M314.2 100.8H312c0-.1-.1-.1-.2-.1-1.3-.1-2.6-.4-3.8-.9-3.7-1.5-6.4-4.2-7.9-7.9-.1-.2-.2-.2-.4-.2-1.3.2-2.5.3-3.8.1-2.9-.3-5.5-1.5-7.5-3.6-3.1-3.1-4.4-7-3.7-11.3.6-3.9 2.7-7 6-9.1.2-.1.2-.2.1-.4-1.4-3.4-1.5-6.9-.3-10.5 2.3-6.7 8.9-10.9 15.9-10.1 4.1.5 7.4 2.3 10 5.5.2.3.2.3.5 0 3.3-3.2 7.2-4.5 11.8-3.7 4.2.7 7.3 3 9.5 6.6.1.2.2.2.4.1 2.7-1.2 5.5-1.6 8.4-1.2 4 .5 7.5 2.2 10.2 5.2 3.8 4.2 5.3 9.1 4.2 14.7-1 5.4-4.1 9.3-8.9 11.8-3.3 1.7-6.8 2.1-10.4 1.5-.2 0-.3 0-.3.2-.6 1-1.3 1.9-2.2 2.7-2.3 2.2-5.1 3.3-8.2 3.3-1.9 0-3.6-.4-5.3-1.1-.2-.1-.2 0-.3.1-.1.3-.3.6-.4.9-2.3 4-5.7 6.4-10.2 7.2-.4.1-.7.1-1 .2z"/><path class="st3" d="M327.8 70.6h-.5c-.3 0-.3.1-.4.3-.4 2-.7 4-1.1 6-.1.4-.2.7-.3 1-.6 1.4-1.5 1.6-2.6 1.6-.3 0-.6-.1-.8-.1-.2-.1-.2-.1-.2-.3.1-.2.2-.5.3-.7.1-.1.1-.2.3-.1.1 0 .3.1.4.1.7.1 1-.1 1.3-.8.3-.7.4-1.5.5-2.2.3-1.5.5-3 .8-4.5 0-.2 0-.2-.2-.2h-.6c-.2 0-.3-.1-.3-.3.1-.2.1-.5.1-.7 0-.2.1-.3.3-.2h.7c.2 0 .2-.1.3-.2 0-.3.1-.6.2-.9.4-1.4 1.4-2 2.9-1.9.2 0 .5.1.7.1.2 0 .2.1.2.3-.1.2-.2.5-.3.8-.1.1-.1.2-.3.1-.2-.1-.5-.1-.7-.1-.5 0-.8.3-.9.7-.1.3-.2.6-.2.9 0 .2 0 .2.2.2h1.1c.2 0 .3.1.2.3-.1.2-.1.5-.1.7 0 .2-.1.2-.3.2-.3-.1-.5-.1-.7-.1zm-21 3.1v2.2c0 .2 0 .3-.2.3-1.2.3-2.3.5-3.6.3-.5-.1-.9-.2-1.3-.5-1-.7-1.1-2.7.2-3.5.6-.4 1.2-.5 1.8-.5.5 0 1 0 1.5.1.1 0 .2 0 .2-.1 0-.9-.4-1.3-1.4-1.4-.7 0-1.4.1-2 .4-.2.1-.3.1-.3-.1-.1-.2-.1-.4-.2-.6-.1-.2 0-.3.2-.4.5-.2 1-.4 1.5-.4.6-.1 1.3-.1 1.9 0 1.2.2 1.8 1 1.8 2.2-.1.5-.1 1.3-.1 2zm-1.5.5v-.9c0-.1 0-.2-.1-.2-.7-.1-1.3-.2-2 0-.6.2-.8.6-.8 1.1 0 .5.3.8.9 1 .6.2 1.3 0 1.9-.1.1 0 .1-.1.1-.2v-.7zm45.3-.9h-2.1c-.2 0-.2.1-.2.2.1 1.1.7 1.7 1.8 1.8.7 0 1.3 0 1.9-.3.2-.1.3 0 .3.2.1.2.1.4.2.6.1.2 0 .4-.2.4-.9.3-1.8.4-2.7.3-.5 0-.9-.2-1.3-.4-.8-.4-1.3-1-1.5-1.9-.2-.9-.2-1.9.1-2.8.5-1.5 1.7-2.2 3.3-2.2 1.6.1 2.5 1.2 2.7 2.7 0 .4.1.7 0 1.1 0 .2-.1.2-.3.2-.6.1-1.3.1-2 .1zm-.7-1.1h1.4c.1 0 .2 0 .2-.2 0-1-.9-1.7-1.9-1.5-.7.2-1 .7-1.2 1.4-.1.2 0 .3.2.3.5-.1.9 0 1.3 0zm-35.1 1.1h-2.1c-.2 0-.2 0-.2.2.2 1.2.8 1.8 2 1.8.6 0 1.2-.1 1.8-.3.2-.1.3 0 .3.1.1.2.1.4.2.7.1.2 0 .3-.2.4-.7.3-1.5.4-2.3.4-.5 0-1-.1-1.4-.2-.9-.4-1.5-1-1.8-2-.3-1-.3-2 .1-2.9.5-1.4 1.7-2.2 3.2-2.1 1.7.1 2.6 1.2 2.7 2.8v.9c0 .2-.1.3-.3.3-.7-.1-1.4-.1-2-.1zm-.7-1.1h1.4c.1 0 .2 0 .2-.2-.1-1.1-1-1.8-2.1-1.4-.6.2-1.1.9-1.1 1.5 0 .1.1.1.2.1h1.4zm18 4.3c-1.8 0-3-1.1-3.2-2.9-.1-.7-.1-1.5.1-2.2.4-1.4 1.6-2.3 3.2-2.2 1.8.1 2.9 1.3 3 3 .1.6 0 1.2-.1 1.8-.2 1.6-1.3 2.5-3 2.5zm1.8-3.5c0-.7-.1-1.2-.3-1.7-.3-.6-.8-.8-1.4-.8-.6 0-1.1.3-1.3.8-.4 1-.4 2.1 0 3.1.2.6.8.9 1.5.9s1.1-.3 1.4-.9c0-.5.1-1 .1-1.4z"/><path class="st3" d="M320.7 69.2c.9 0 1.6.2 2.3.5.2.1.2.2.2.4-.1.2-.2.4-.2.6-.1.2-.1.2-.3.1-.6-.3-1.2-.4-1.8-.5-.3 0-.5 0-.7.1-.2.1-.4.3-.4.6s.1.5.4.6c.4.2.8.3 1.2.5.4.1.7.2 1.1.4.7.4 1.2.9 1.1 1.8-.1.9-.5 1.6-1.4 1.9-1.4.5-2.7.2-3.9-.5-.1-.1-.1-.2-.1-.3.1-.2.2-.5.3-.7.1-.2.1-.3.4-.1.5.3 1 .5 1.5.6.3.1.7.1 1 0 .2 0 .3-.1.4-.2.5-.3.5-1 0-1.3-.3-.2-.7-.3-1-.4-.4-.1-.8-.2-1.2-.4-.7-.3-1.2-.9-1.2-1.7 0-.9.4-1.5 1.2-1.9.2 0 .7-.1 1.1-.1zm-23.3 7.3c-.8 0-1.6-.2-2.3-.7-.2-.1-.3-.2-.2-.5.1-.2.2-.4.2-.6.1-.2.2-.2.3-.1.5.3 1 .6 1.5.6.3.1.7.1 1 0 .2 0 .4-.1.5-.3.4-.4.3-.8-.1-1.1-.4-.2-.8-.3-1.2-.5-.3-.1-.7-.2-1-.3-.8-.4-1.2-.9-1.2-1.8s.5-1.5 1.3-1.9c1.2-.4 2.4-.2 3.5.4.1.1.2.1.1.3-.1.2-.2.5-.3.7-.1.2-.1.2-.3.1-.5-.3-1.1-.4-1.7-.5-.3 0-.6 0-.8.1-.5.3-.5.9-.1 1.2.4.2.8.3 1.2.5.4.1.8.3 1.2.5.7.4 1.1.9 1.1 1.8 0 .8-.4 1.4-1.2 1.8-.4.3-.9.3-1.5.3zm47 0c-.3 0-.7 0-1.1-.1-1.2-.3-2.1-1.3-2.3-2.6-.1-.7-.1-1.4.1-2.1.4-1.4 1.5-2.3 3-2.4.7 0 1.3 0 2 .2.2.1.2.1.2.3-.1.2-.2.4-.2.7-.1.2-.2.2-.4.2-.4-.1-.9-.2-1.3-.2-.9 0-1.5.4-1.7 1.3-.2.7-.2 1.4-.1 2.1.3 1 1 1.5 2.1 1.4.4 0 .7-.1 1-.2.2-.1.2 0 .3.2.1.2.2.5.2.7.1.2 0 .3-.2.3-.4.1-1 .2-1.6.2zm-36.2-5.1v-4.6c0-.2.1-.4.3-.3h.7c.4 0 .4 0 .4.4V76c0 .3-.1.4-.3.3h-.7c-.4 0-.4 0-.4-.4v-4.5zm29.8-1.3c.8-.7 1.6-.8 2.5-.6.2.1.3.1.2.3-.1.2-.2.5-.3.7-.1.2-.2.2-.3.2-.2 0-.4-.1-.6 0-.7.1-1.2.5-1.3 1.3-.1.3-.1.7-.1 1v3.1c0 .3-.1.3-.3.3h-.9c-.2 0-.2-.1-.2-.3v-6.4c0-.2.1-.3.3-.3h.8c.2 0 .3.1.3.3-.1.1-.1.2-.1.4z"/></g><g id="Character_1"><path class="st18" d="M545.4 154.1c1.3 5.5 1.2 14.4-7.4 28.2l-19.4-12.1s4-9.9 8.5-15c3.1-3.5 8-7.2 12.8-8.1 2.2-.3 4.5 2.6 5.5 7z"/><path class="st17" d="M519.4 170.6s-2.1 8.5-5.8 8.9c-7.4.7-22.9-17.4-24.3-19 0 0 0-.1-.1-.1-3.1-3.5-4-6.2-6.4-8.5-1.5-1.6-5-2.2-4.8-1.2.4 3.2-.5 1.4-1.7 4.7-.9 2.4-.3 3.6 1.5 4.5 3.2 1.1 7.8 3.2 9.5 5.1 0 0 10.8 22.4 17.2 28.7 5.9 5.8 18 14.7 31.4-12.2-2.8-1.9-16.5-10.9-16.5-10.9z"/><path class="st16" d="M233.2 465.6c-2.1-12.9-24.5-14.5-32.9-13.3-8.7 1.2-27.7 6.9-35.5 9.3l-.1-.2-3.8.2c-.1-.2-.1-.3-.1-.3l-8.8.2-8.8-.2s-.1.1-.1.3l-3.8-.2s0 .1-.1.2c-7.7-2.4-26.8-8.2-35.5-9.3-8.3-1.1-30.8.5-32.9 13.3-2 12.4 10.1 21.8 30.9 26.7 11.3 2.7 42.4 2.3 50.3 2.1 7.9.2 39 .6 50.3-2.1 20.8-4.9 32.9-14.3 30.9-26.7z"/><path class="st17" d="M152.3 481.1l11.4 2 4.1 7.3-15.1 4z"/><path class="st14" d="M171.9 334.4c3.5 1.3 7.4 6.6 8.1 10.3.6 3.2 1.3 5.2.8 8.5-.4 3.3 3.9 9.3 3.5 13-1.5 15.9-30.8 6.5-30.8 1.9 0-9.5.2-16 2.6-25.2"/><path class="st17" d="M114.8 454.7l26.9 7 .6-8s-20.9-8.6-22.9-15.5c-2.6-9.2 25.5-29.7 25.5-29.7s-29.5-5.1-34.2 2.1c-18.9 29.1-9.6 39.8-.3 42.8l4.4 1.3zm75.8 0l-26.9 7-.6-8s20.9-8.6 22.9-15.5c2.6-9.2-25.5-29.7-25.5-29.7s29.5-5.1 34.2 2.1c18.9 29.1 9.6 39.8.3 42.8l-4.4 1.3z"/><path class="st18" d="M183.3 430l17.9-8.4s-8.9-16.3-13.7-23c-5.7-7.8-14.5-13.3-24.5-15.4 0 0-18.8-.3-25 1.9-21.2 7.5-32.2 33.6-32.2 33.6l17.6 9.8 4-4.4c-3.5 13.4-.4 41.3-.4 41.3l57.3-6.7-4.2-32.8 3.2 4.1z"/><path class="st14" d="M124.2 473.2l-3.2-35.6 66-.2-4.3 36.1z"/><path d="M158.3 456.5c0 2.3-1.9 4.2-4.2 4.2-2.3 0-4.2-1.9-4.2-4.2 0-2.3 1.9-4.2 4.2-4.2 2.3 0 4.1 1.9 4.2 4.2z" fill="#fafafa"/><path class="st17" d="M153.8 395.9c-5.6-.1-10-4.6-10.1-10.2l-.5-41c0-1.7 1.2-3.1 2.9-3.3l17.3-4.4c5.5-.6 9.2 6.2 9.6 11.8.4 6.2.6 13.7-.1 18.4-1.5 9.3-8.6 10.5-8.6 10.5v8c0 5.7-4.8 10.4-10.5 10.2z"/><path d="M164.3 377.7s-6.2.4-12.4-3.3c0 0 3 6.4 12.3 5.5l.1-2.2z" fill="#aa6550"/><path class="st14" d="M122.4 359.8c.9-3.7 6-8.4 6.2-12.2.4-6.7 3.3-8.7 6.7-11.8 1.5-1.3 2.6-7 9.3-10 3.1-1.4 6.9-.2 11.3-.7 8.3-1.2 8.6 2.7 10.8 3.3 2.2.5 4.3 1.6 5.8 3.3 1.5 1.7 2.3 4.1 1.6 6.3-.6 2.2-2.9 3.9-5.1 3.6-1.7-.2-3.3-1.5-5-1-1.6.5-2.6 1.3-4.2 1.6-1.6.3-2.8-.1-4.4-.2-1.8-.2-3.3 1.3-4.1 2.9-.3.6-.5 1.3-.8 2-1.3 6.5-2.7 6.2-.9 10 .9 2 2 8.3 1.5 10.6-1.2 5.9-4.4 3.9-7.9 7.6-3.3 3.4-11.6 3-14.2-.6-3-4.2-9-5.4-6.6-14.7z"/><path class="st19" d="M177.3 495.3l-9.3-4.5-4.3-7.8 8.9-7.6.7 1c3.1 4.4 15.1 22.5 15.7 26.2.8 4.3-11.7-7.3-11.7-7.3z"/><path d="M184.2 501.1s4.9 3.9 5.5 2.6c.7-1.3-10.9-20.4-17-28.3l-.5.3 13.8 22.2c.1 0-2.3 2.2-1.8 3.2z" fill="#bcbcbc"/><path class="st3" d="M159.1 365c1 2 3.8 3.7 6 3.7 2.8.1 4.6-1.9 4.6-3.7-3.1 2.2-5.3 1.9-10.6 0z"/></g></svg>