<svg viewBox="0 0 56 56" fill="none" xmlns="http://www.w3.org/2000/svg"><path d="M55.257 21.418l-5.28-5.28a.933.933 0 00-1.32 0l-3.387 3.387v-9.258c0-.02-.01-.039-.012-.06a.878.878 0 00-.048-.239c-.01-.03-.017-.059-.03-.088a.917.917 0 00-.187-.273L35.659.273a.907.907 0 00-.28-.186c-.027-.012-.053-.02-.08-.03a.9.9 0 00-.253-.05C35.036.01 35.021 0 35.003 0H5.137a.933.933 0 00-.934.933V47.6h-2.8a.933.933 0 00-.933.933v3.734A3.733 3.733 0 004.203 56h37.334a3.733 3.733 0 003.733-3.733V32.724l9.987-9.986a.933.933 0 000-1.32zm-22.44 15.84l-1.32-1.32L42.715 24.72l1.321 1.321-11.22 11.219zm.911 3.552l-4.716 1.573 1.573-4.717 3.143 3.144zm2.209-37.624l6.147 6.147h-6.147V3.186zM4.203 54.133a1.867 1.867 0 01-1.866-1.866v-2.8h35.466v2.8c0 .655.172 1.3.502 1.866H4.203zm39.2-1.866a1.867 1.867 0 01-3.733 0v-3.734a.933.933 0 00-.933-.933H6.07V1.867h28v8.4c0 .515.418.933.933.933h8.4v10.192l-.027.028-13.859 13.86c-.007.006-.008.017-.015.023a.934.934 0 00-.21.341l-2.641 7.92a.933.933 0 001.18 1.18l7.919-2.64a.912.912 0 00.34-.21c.007-.007.017-.009.024-.015l7.29-7.288v17.676zm-7.947-12.368l-1.32-1.32 11.22-11.22 1.32 1.32-11.22 11.22zm12.54-12.54l-3.96-3.96.66-.66.66-.66 3.959 3.961-1.32 1.319zm2.64-2.639l-3.96-3.96 2.639-2.64 3.96 3.96-2.64 2.64z" fill="#21BCFF"/><path d="M27.537 13.067v-5.6H25.67v5.6h-1.867V5.6h-1.866v7.467H20.07v-8.4h-1.867v8.4h-1.866v-5.6H14.47v5.6h-1.867V9.333h-1.866v3.734H8.87v1.866h20.533v-1.866h-1.866zM10.737 17.733H8.87V19.6h1.867v-1.867zM40.603 17.733h-28V19.6h28v-1.867zM38.737 21.467H8.87v1.866h29.867v-1.866zM35.003 25.2H8.87v1.867h26.133V25.2zM31.27 28.933H8.87V30.8h22.4v-1.867zM10.737 42.933V33.6H8.87v10.267c0 .515.418.933.933.933h14.934v-1.867h-14z" fill="#21BCFF"/><path d="M22.21 35.74l-3.073 3.074-2.14-2.14a.933.933 0 00-1.32 0l-3.733 3.733 1.32 1.32 3.073-3.074 2.14 2.14a.933.933 0 001.32 0l3.733-3.733-1.32-1.32z" fill="#21BCFF"/></svg>