<svg viewBox="0 0 55 57" fill="none" xmlns="http://www.w3.org/2000/svg"><g clip-path="url(#clip0)" fill="#21BCFF"><path d="M18.855 16.38h21.29c.976 0 1.774.795 1.774 1.767v5.298c0 .651-.354 1.214-.887 1.523v2.252c.533.309.887.872.887 1.523v5.298c0 .652-.354 1.214-.887 1.524v2.251c.533.31.887.872.887 1.523v5.299c0 .65-.354 1.214-.887 1.523v2.252c.533.309.887.872.887 1.523v5.298c0 .971-.798 1.766-1.774 1.766h-21.29a1.775 1.775 0 01-1.774-1.766v-5.298c0-.651.355-1.214.887-1.523V46.16a1.757 1.757 0 01-.887-1.523V39.34c0-.652.355-1.215.887-1.524v-2.252a1.757 1.757 0 01-.887-1.523v-5.298c0-.651.355-1.214.887-1.523v-2.252a1.757 1.757 0 01-.887-1.523v-5.298c0-.972.798-1.766 1.774-1.766zm21.29 38.854v-5.298h-21.29v5.298h21.29zm-.887-7.064v-1.766H19.742v1.766h19.516zm.887-3.532V39.34h-21.29v5.298h21.29zm-.887-7.065v-1.766H19.742v1.766h19.516zm.887-3.532v-5.298h-21.29v5.298h21.29zm-.887-7.064v-1.766H19.742v1.766h19.516zm.887-3.532v-5.298h-21.29v5.298h21.29zM47.242 42.872h1.774v1.766h-1.774v-1.766zM47.242 46.404h1.774v1.766h-1.774v-1.766zM9.984 42.872h1.774v1.766H9.984v-1.766z"/><path d="M4.661 51.702c1.154 0 2.13.74 2.495 1.766h2.828v-3.532h1.774v3.532h1.774v-20.31h-1.774v7.947H9.984v-3.532H7.156a2.651 2.651 0 01-2.495 1.766A2.663 2.663 0 012 36.69a2.663 2.663 0 012.661-2.649c1.154 0 2.13.74 2.495 1.766h2.828V23.125c-2.14-2.01-3.482-4.846-3.482-7.992 0-6.049 4.946-10.983 11.033-10.983 1.242 0 2.44.2 3.593.596a9.265 9.265 0 016.698-2.88c1.663 0 3.304.463 4.734 1.302A11.136 11.136 0 0139.78.486c6.076 0 11.032 4.923 11.032 10.983 0 .805-.088 1.6-.255 2.373a9.158 9.158 0 013.017 6.777c0 3.19-1.708 6.049-4.536 7.716v7.472h2.806a2.651 2.651 0 012.495-1.766A2.663 2.663 0 0157 36.691a2.663 2.663 0 01-2.661 2.648 2.651 2.651 0 01-2.495-1.766h-2.828v3.532h-1.774v-7.947h-1.774v20.31h1.774v-3.532h1.774v3.532h2.828a2.651 2.651 0 012.495-1.766A2.663 2.663 0 0157 54.352 2.663 2.663 0 0154.339 57a2.651 2.651 0 01-2.495-1.766h-6.376V57h-1.775V29.847c-.01-.817 0-.453-.033-1.512 1.01.033 2.65-.43 3.493-.751 2.939-1.126 4.757-4.106 4.757-6.7.011-2.219-.765-4.46-2.528-5.773l-.998-.53s.72-2.417.488-4.161c-.554-4.084-4.424-8.036-8.782-8.102-2.44-.044-4.48.342-6.387 2.219l-.832.96-.82-.684c-1.353-1.016-2.762-1.27-4.325-1.27-2.196 0-4.258.883-5.655 2.638l-.533.74-1.13-.552c-1.564-.728-2.74-.673-3.716-.585-4.424.42-8.383 4.415-8.383 9.04 0 2.175.655 4.173 1.797 5.762 1.242 1.733 2.994 2.97 5.178 3.367.011.518.011.794.011 1.236h.011v31.789h-1.774v-1.766H7.156a2.651 2.651 0 01-2.495 1.766A2.663 2.663 0 012 54.33c0-1.457 1.198-2.627 2.661-2.627zm0-15.895a.888.888 0 00-.887.883.888.888 0 001.774 0c0-.485-.399-.883-.887-.883zm49.678 1.766a.888.888 0 00.887-.883.888.888 0 00-1.774 0c0 .486.399.883.887.883zm0 17.661a.888.888 0 00.887-.883.888.888 0 00-1.774 0c0 .486.399.883.887.883zm-8.871-25.597v1.755h1.774v-2.23a11.3 11.3 0 01-1.774.475zm-33.71-5.155v6.91h1.774v-6.027a11.543 11.543 0 01-1.774-.883zM4.661 55.234a.888.888 0 00.887-.883.888.888 0 00-1.774 0c0 .486.4.883.887.883z"/><path d="M9.984 46.404h1.774v1.766H9.984v-1.766zM36.597 19.913h1.774v1.766h-1.774v-1.766zM33.048 19.913h1.774v1.766h-1.774v-1.766zM24.177 30.51h1.775v1.765h-1.775V30.51zM20.63 30.51h1.773v1.765H20.63V30.51zM37.484 41.105h1.774v1.767h-1.774v-1.767zM33.935 41.105h1.775v1.767h-1.775v-1.767zM24.177 51.702h1.775v1.766h-1.775v-1.766zM20.63 51.702h1.773v1.766H20.63v-1.766z"/></g><defs><clipPath id="clip0"><path transform="matrix(-1 0 0 1 55 0)" fill="#fff" d="M0 0h55v57H0z"/></clipPath></defs></svg>