<svg viewBox="0 0 56 56" fill="none" xmlns="http://www.w3.org/2000/svg"><path d="M11.375 12.25h1.75V14h-1.75v-1.75zM7.875 12.25h1.75V14h-1.75v-1.75zM4.375 12.25h1.75V14h-1.75v-1.75zM22.75 19.25h-14a2.628 2.628 0 00-2.625 2.625v1.75c0 1.14.734 2.102 1.75 2.464v2.073a2.62 2.62 0 00-1.75 2.463v1.75c0 1.14.734 2.102 1.75 2.464v2.073a2.62 2.62 0 00-1.75 2.463v1.75A2.628 2.628 0 008.75 43.75h14a2.628 2.628 0 002.625-2.625v-1.75c0-1.14-.734-2.102-1.75-2.464v-2.073a2.621 2.621 0 001.75-2.464v-1.75c0-1.14-.734-2.102-1.75-2.464v-2.073a2.621 2.621 0 001.75-2.464v-1.75a2.628 2.628 0 00-2.625-2.623zM9.625 28v-1.75h12.25V28H9.625zm0 8.75V35h12.25v1.75H9.625zm14 4.375a.876.876 0 01-.875.875h-14a.876.876 0 01-.875-.875v-1.75c0-.483.393-.875.875-.875h14c.482 0 .875.392.875.875v1.75zm0-8.75a.876.876 0 01-.875.875h-14a.876.876 0 01-.875-.875v-1.75c0-.483.393-.875.875-.875h14c.482 0 .875.392.875.875v1.75zm0-8.75a.876.876 0 01-.875.875h-14a.876.876 0 01-.875-.875v-1.75c0-.483.393-.875.875-.875h14c.482 0 .875.392.875.875v1.75z" fill="#21BCFF"/><path d="M40.25 16.625H52.5A2.628 2.628 0 0055.125 14V3.5A2.628 2.628 0 0052.5.875H40.25A2.628 2.628 0 0037.625 3.5v4.375H35a2.628 2.628 0 00-2.625 2.625V21a.876.876 0 01-.875.875h-.875v-10.5A2.628 2.628 0 0028 8.75H3.5a2.628 2.628 0 00-2.625 2.625v33.25A2.628 2.628 0 003.5 47.25H28a2.628 2.628 0 002.625-2.625v-10.5h.875c.482 0 .875.392.875.875v10.5A2.628 2.628 0 0035 48.125h2.625V52.5a2.628 2.628 0 002.625 2.625H52.5a2.628 2.628 0 002.625-2.625V42a2.628 2.628 0 00-2.625-2.625H40.25A2.628 2.628 0 0037.625 42v4.375H35a.876.876 0 01-.875-.875V35a2.628 2.628 0 00-2.625-2.625h-.875v-3.5h7v4.375a2.628 2.628 0 002.625 2.625H52.5a2.628 2.628 0 002.625-2.625v-10.5a2.628 2.628 0 00-2.625-2.625H40.25a2.628 2.628 0 00-2.625 2.625v4.375h-7v-3.5h.875A2.628 2.628 0 0034.125 21V10.5c0-.483.393-.875.875-.875h2.625V14a2.628 2.628 0 002.625 2.625zm12.25 36.75H40.25a.876.876 0 01-.875-.875v-7.875h14V52.5a.876.876 0 01-.875.875zm-12.25-12.25H52.5c.482 0 .875.392.875.875v.875h-14V42c0-.483.393-.875.875-.875zm12.25-7H40.25a.876.876 0 01-.875-.875v-7.875h14v7.875a.876.876 0 01-.875.875zm-12.25-12.25H52.5c.482 0 .875.392.875.875v.875h-14v-.875c0-.483.393-.875.875-.875zM3.5 10.5H28c.482 0 .875.392.875.875v4.375H2.625v-4.375c0-.483.393-.875.875-.875zm24.5 35H3.5a.876.876 0 01-.875-.875V17.5h26.25v27.125A.876.876 0 0128 45.5zm24.5-30.625H40.25a.876.876 0 01-.875-.875V6.125h14V14a.876.876 0 01-.875.875zM40.25 2.625H52.5c.482 0 .875.392.875.875v.875h-14V3.5c0-.483.393-.875.875-.875z" fill="#21BCFF"/><path d="M41.125 7.875h10.5v1.75h-10.5v-1.75zM49.875 11.375h1.75v1.75h-1.75v-1.75zM41.125 11.375h7v1.75h-7v-1.75zM41.125 46.375h10.5v1.75h-10.5v-1.75zM49.875 49.875h1.75v1.75h-1.75v-1.75zM41.125 49.875h7v1.75h-7v-1.75zM41.125 27.125h10.5v1.75h-10.5v-1.75zM49.875 30.625h1.75v1.75h-1.75v-1.75zM41.125 30.625h7v1.75h-7v-1.75z" fill="#21BCFF"/></svg>