<svg viewBox="0 0 102 61" fill="none" xmlns="http://www.w3.org/2000/svg"><path d="M67 6.25a3.5 3.5 0 11-7 0 3.5 3.5 0 017 0zM72.25 1h17.5v3.5h-17.5V1zm0 7h14v3.5h-14V8zM78 28.25a3.5 3.5 0 11-7 0 3.5 3.5 0 017 0zM83.25 23h17.5v3.5h-17.5V23zm0 7h14v3.5h-14V30z" fill="#E2E7EE"/><path d="M0 0h46v55H0V0z" fill="#C2C9D4"/><path d="M5 5h46v55H5V5z" fill="#E2E7EE"/><path d="M35 15h4v4h-4v-4zm0 8h4v4h-4v-4zm-21-8h16v4H14v-4zm0 22h16v4H14v-4zm0-14h16v4H14v-4zm0 22h16v4H14v-4z" fill="#fff"/><path d="M42.968 35.297L54.21 24.054l1.582 1.582L44.55 36.879l-1.582-1.582zM43 43.582l11.243 11.242 1.581-1.581L44.582 42 43 43.582zm2.068-5.446h13.424v2.237H45.068v-2.237z" fill="#C2C9D4"/><path d="M46.186 39.254a5.594 5.594 0 11-11.187 0 5.594 5.594 0 0111.187 0zm15.662-16.779a4.475 4.475 0 11-8.95 0 4.475 4.475 0 018.95 0zm4.474 16.779a4.475 4.475 0 11-8.95 0 4.475 4.475 0 018.95 0zm-4.474 16.78a4.475 4.475 0 11-8.95 0 4.475 4.475 0 018.95 0z" fill="#21BCFF"/></svg>
