<svg viewBox="0 0 69 73" fill="none" xmlns="http://www.w3.org/2000/svg"><path d="M49.277 16.139v8.554a2.14 2.14 0 01-4.277 0V16.14a2.14 2.14 0 014.277 0zM57.277 12.139V24.97a2.14 2.14 0 01-4.277 0V12.139a2.14 2.14 0 014.277 0zM65.277 8.139v17.109a2.14 2.14 0 01-4.277 0V8.138a2.14 2.14 0 014.277 0zM38.496 6.559V34.36l-18.107-1.14-13.716-8.909A32.04 32.04 0 0136.358 4.42a2.14 2.14 0 012.138 2.139z" fill="#E2E7EE"/><path d="M68.437 36.5c0 17.014-13.211 30.91-29.941 32.009-.707.047-1.42.071-2.139.071a32.01 32.01 0 01-15.23-3.84l4.263-17.404L38.496 34.36h27.803a2.14 2.14 0 012.138 2.139z" fill="#19AEEE"/><path d="M68.587 36.5c0 14.974-9.158 25.27-20.388 29.949L38.496 34.36H66.45a2.14 2.14 0 012.138 2.139z" fill="#C2C9D4"/><path d="M38.496 34.361L20.032 66.655a2.139 2.139 0 01-2.948.679C6.704 60.832 0 49.348 0 36.5c0-3.932.624-7.802 1.856-11.5a2.14 2.14 0 012.707-1.353L38.495 34.36z" fill="#21BCFF"/><path d="M68 25.248c0 1.18-.793 2.139-1.769 2.139H44.77c-.977 0-1.769-.958-1.769-2.139 0-1.18.792-2.139 1.769-2.139H66.23c.977 0 1.769.958 1.769 2.139z" fill="#C2C9D4"/></svg>
