<svg viewBox="0 0 75 75" fill="none" xmlns="http://www.w3.org/2000/svg"><path d="M2.733 71.533h2.734v2.734H2.733v-2.734zM2.733 61.967h2.734V68.8H2.733v-6.833zM5.98 55.434l6.832-5.469 1.708 2.134-6.832 5.47-1.708-2.135zM18.28 52.1l1.708-2.134 6.832 5.467-1.707 2.134-6.834-5.467zM27.334 61.967h2.733V68.8h-2.733v-6.833zM27.334 71.533h2.733v2.734h-2.733v-2.734z" fill="#E2E7EE"/><path d="M2.733 56.5h2.734c.754 0 1.366.612 1.366 1.367V60.6c0 .755-.612 1.367-1.366 1.367H2.733A1.367 1.367 0 011.367 60.6v-2.733c0-.755.612-1.367 1.366-1.367z" fill="#E2E7EE"/><path d="M5.467 63.333H2.733A2.737 2.737 0 010 60.6v-2.733a2.737 2.737 0 012.733-2.734h2.734A2.737 2.737 0 018.2 57.867V60.6a2.737 2.737 0 01-2.733 2.733zm-2.734-5.466h-.001l.001 2.733h2.734v-2.733H2.733z" fill="#C2C9D4"/><path d="M15.033 45.567h2.734c.754 0 1.366.612 1.366 1.366v2.734c0 .754-.612 1.366-1.366 1.366h-2.734a1.367 1.367 0 01-1.367-1.366v-2.734c0-.754.612-1.366 1.367-1.366z" fill="#E2E7EE"/><path d="M17.767 52.4h-2.734a2.737 2.737 0 01-2.733-2.733v-2.734a2.737 2.737 0 012.733-2.733h2.734a2.737 2.737 0 012.733 2.733v2.734a2.737 2.737 0 01-2.733 2.733zm-2.734-5.467h-.001l.001 2.734h2.734v-2.734h-2.734z" fill="#C2C9D4"/><path d="M27.334 56.5h2.733c.755 0 1.366.612 1.366 1.367V60.6c0 .755-.611 1.367-1.366 1.367h-2.733a1.367 1.367 0 01-1.367-1.367v-2.733c0-.755.612-1.367 1.367-1.367z" fill="#E2E7EE"/><path d="M30.067 63.333h-2.734A2.737 2.737 0 0124.6 60.6v-2.733a2.737 2.737 0 012.733-2.734h2.734a2.737 2.737 0 012.733 2.734V60.6a2.737 2.737 0 01-2.733 2.733zm-2.734-5.466V60.6h2.734v-2.733h-2.734zM71.167 66H73.9v2.733h-2.733V66zM54.167 66h9.567v2.733h-9.567V66zM44.166 66H46.9v2.733h-2.733V66zM71.167 61H73.9v2.733h-2.733V61zM49.167 61H68.3v2.733H49.167V61zM44.166 61H46.9v2.733h-2.733V61zM71.167 71H73.9v2.733h-2.733V71zM54.167 71h9.567v2.733h-9.567V71zM44.166 71H46.9v2.733h-2.733V71z" fill="#C2C9D4"/><path d="M71.967 45.567c0 6.038-4.895 10.933-10.934 10.933-6.038 0-10.933-4.895-10.933-10.933 0-6.039 4.895-10.934 10.933-10.934 6.039 0 10.934 4.895 10.934 10.934z" fill="#E2E7EE"/><path d="M71.966 45.567h-8.2a2.733 2.733 0 01-2.733-2.734v-8.2c6.039 0 10.933 4.895 10.933 10.934z" fill="#C2C9D4"/><path d="M41.5 30.028v9.567a2.733 2.733 0 01-2.733 2.733h-8.2a2.733 2.733 0 01-2.733-2.733v-9.567H41.5z" fill="#E2E7EE"/><path d="M30.566 42.328h8.2v2.734a2.734 2.734 0 01-2.733 2.733H33.3a2.734 2.734 0 01-2.734-2.733v-2.734z" fill="#C2C9D4"/><path d="M48.333 20.462c0 7.548-6.118 13.666-13.666 13.666S21 28.01 21 20.462 27.119 6.795 34.667 6.795s13.666 6.119 13.666 13.667zM33.166 0H35.9v2.733h-2.733V0zM19.205 6.933L21.138 5l1.932 1.933-1.932 1.932-1.933-1.932zM14.166 19.095H16.9v2.733h-2.733v-2.733zM52.433 19.095h2.733v2.733h-2.733v-2.733zM46.263 6.933L48.196 5l1.932 1.933-1.932 1.932-1.933-1.932z" fill="#21BCFF"/></svg>
