<svg viewBox="0 0 93 77" fill="none" xmlns="http://www.w3.org/2000/svg"><path d="M38.704 44h42.592c.941 0 1.704.56 1.704 1.25v2.5c0 .69-.763 1.25-1.704 1.25H38.704C37.763 49 37 48.44 37 47.75v-2.5c0-.69.763-1.25 1.704-1.25z" fill="#C2C9D4"/><path d="M87 46.5a2.5 2.5 0 115 0 2.5 2.5 0 01-5 0z" fill="#21BCFF"/><path d="M46.583 33h34.834c.874 0 1.583.56 1.583 1.25v2.5c0 .69-.709 1.25-1.583 1.25H46.583C45.71 38 45 37.44 45 36.75v-2.5c0-.69.709-1.25 1.583-1.25z" fill="#C2C9D4"/><path d="M87 35.5a2.5 2.5 0 115 0 2.5 2.5 0 01-5 0z" fill="#21BCFF"/><path d="M53.476 22h28.048c.815 0 1.476.56 1.476 1.25v2.5c0 .69-.661 1.25-1.476 1.25H53.476C52.661 27 52 26.44 52 25.75v-2.5c0-.69.661-1.25 1.476-1.25zM30.454 69.828l11.732-8.803 1.76 2.347-11.732 8.802-1.76-2.346z" fill="#E2E7EE"/><path d="M87 24.5a2.5 2.5 0 115 0 2.5 2.5 0 01-5 0z" fill="#21BCFF"/><path d="M65.654 69.828l11.732-8.803 1.76 2.347-11.732 8.802-1.76-2.346zm-17.601-6.455l1.76-2.346 11.734 8.8-1.76 2.346-11.734-8.8zM57.5 11h24c.828 0 1.5.56 1.5 1.25v2.5c0 .69-.672 1.25-1.5 1.25h-24c-.828 0-1.5-.56-1.5-1.25v-2.5c0-.69.672-1.25 1.5-1.25zM12.854 63.373l1.76-2.346 11.733 8.8-1.76 2.346-11.733-8.8zM2 59.267h5.867V62.2H2v-2.933zm82.133 0H90V62.2h-5.867v-2.933z" fill="#E2E7EE"/><path d="M87 13.5a2.5 2.5 0 115 0 2.5 2.5 0 01-5 0z" fill="#21BCFF"/><path d="M26.933 69.533h2.934c.81 0 1.466.657 1.466 1.467v2.933c0 .81-.656 1.467-1.466 1.467h-2.934c-.81 0-1.466-.657-1.466-1.467V71c0-.81.657-1.467 1.466-1.467z" fill="#E2E7EE"/><path d="M29.867 76.867h-2.934A2.937 2.937 0 0124 73.933V71a2.937 2.937 0 012.933-2.933h2.934A2.937 2.937 0 0132.8 71v2.933a2.937 2.937 0 01-2.933 2.934zM26.933 71v2.933h2.934V71h-2.934z" fill="#C2C9D4"/><path d="M44.533 57.8h2.933c.81 0 1.467.657 1.467 1.467V62.2c0 .81-.657 1.467-1.467 1.467h-2.933c-.81 0-1.467-.657-1.467-1.467v-2.933c0-.81.657-1.467 1.467-1.467z" fill="#E2E7EE"/><path d="M47.467 65.133h-2.934A2.937 2.937 0 0141.6 62.2v-2.933a2.937 2.937 0 012.933-2.934h2.934a2.937 2.937 0 012.933 2.934V62.2a2.937 2.937 0 01-2.933 2.933zm-2.934-5.866V62.2h2.934v-2.933h-2.934z" fill="#C2C9D4"/><path d="M62.134 69.533h2.933c.81 0 1.467.657 1.467 1.467v2.933c0 .81-.657 1.467-1.467 1.467h-2.933c-.81 0-1.467-.657-1.467-1.467V71c0-.81.657-1.467 1.467-1.467z" fill="#E2E7EE"/><path d="M65.067 76.867h-2.933a2.937 2.937 0 01-2.934-2.934V71a2.937 2.937 0 012.933-2.933h2.934A2.937 2.937 0 0168 71v2.933a2.937 2.937 0 01-2.933 2.934zM62.134 71v2.933h2.933V71h-2.933z" fill="#C2C9D4"/><path d="M79.733 57.8h2.934c.81 0 1.466.657 1.466 1.467V62.2c0 .81-.656 1.467-1.466 1.467h-2.934c-.81 0-1.466-.657-1.466-1.467v-2.933c0-.81.656-1.467 1.466-1.467z" fill="#E2E7EE"/><path d="M82.666 65.133h-2.933A2.937 2.937 0 0176.8 62.2v-2.933a2.937 2.937 0 012.933-2.934h2.933a2.937 2.937 0 012.934 2.934V62.2a2.937 2.937 0 01-2.933 2.933zm-2.933-5.866V62.2h2.933v-2.933h-2.933z" fill="#C2C9D4"/><path d="M9.333 57.8h2.934c.81 0 1.466.657 1.466 1.467V62.2c0 .81-.656 1.467-1.466 1.467H9.333c-.81 0-1.466-.657-1.466-1.467v-2.933c0-.81.656-1.467 1.466-1.467z" fill="#E2E7EE"/><path d="M12.267 65.133H9.333A2.937 2.937 0 016.4 62.2v-2.933a2.937 2.937 0 012.933-2.934h2.934a2.937 2.937 0 012.933 2.934V62.2a2.937 2.937 0 01-2.933 2.933zm-2.934-5.866V62.2h2.934v-2.933H9.333z" fill="#C2C9D4"/><path d="M34.415 10.361a9.55 9.55 0 00-3.984.865A7.747 7.747 0 0022 8.395a7.746 7.746 0 00-2.65 1.381 9.585 9.585 0 00-16.174 9.387 7.76 7.76 0 004.927 14.01 9.573 9.573 0 007.872 4.117A9.545 9.545 0 0022 35.16a9.636 9.636 0 002.172-2.484 7.754 7.754 0 009.365-3.186A9.585 9.585 0 0044 19.946a9.585 9.585 0 00-9.585-9.584z" fill="#21BCFF"/></svg>
